<?xml version="1.0" encoding="UTF-8"?>
<svg version="1.1" xmlns="http://www.w3.org/2000/svg" width="1500" height="750">
<path d="M0 0 C495 0 990 0 1500 0 C1500 247.5 1500 495 1500 750 C1005 750 510 750 0 750 C0 502.5 0 255 0 0 Z " fill="#000000" transform="translate(0,0)"/>
<path d="M0 0 C13.2 0 26.4 0 40 0 C50.59833126 30.87339976 61.13346457 61.75961749 71.04858398 92.86010742 C73.19423284 99.5686803 75.4429605 106.21370038 77.87426758 112.82446289 C78.93623192 115.82011898 79.88670618 118.8235726 80.80078125 121.8671875 C82.96030883 128.94077785 85.28008289 135.95582803 87.63082886 142.96737671 C88.39886643 145.25870191 89.16464402 147.55077254 89.92993164 149.84301758 C92.54063885 157.66031322 95.15888304 165.47506643 97.78149414 173.28837585 C99.03121808 177.01349739 100.27849708 180.73943527 101.52545166 184.46548462 C102.12382876 186.25134574 102.72335864 188.03682111 103.32415771 189.8218689 C106.162487 198.25521055 108.95318924 206.68283261 111.40234375 215.23828125 C114.57583404 226.28973333 118.38739581 237.12958926 122.125 248 C123.20250797 251.14543301 124.27900116 254.29121209 125.35543823 257.43701172 C126.01905651 259.37513585 126.68348861 261.31298161 127.34890747 263.25048828 C127.94976777 265.00073303 128.54858914 266.75167947 129.14508057 268.50341797 C129.71831162 270.17739833 130.30058314 271.8483083 130.89154053 273.51611328 C131.16693665 274.30614746 131.44233276 275.09618164 131.72607422 275.91015625 C131.97187225 276.60375244 132.21767029 277.29734863 132.47091675 278.01196289 C133 280 133 280 133 284 C120.79 284 108.58 284 96 284 C93.62665829 277.4733103 91.36349441 271.14899876 89.5 264.5 C88.14364546 259.7694015 86.74151446 255.10658664 85 250.5 C83.03291304 245.27813462 81.47822603 239.97154413 79.92578125 234.6159668 C76.625524 223.23234317 73.10884809 211.98033649 68.91796875 200.890625 C68 198 68 198 68 194 C36.32 194.33 4.64 194.66 -28 195 C-29.32 199.62 -30.64 204.24 -32 209 C-32.96936826 211.43905563 -33.93889804 213.87834344 -34.95141602 216.29980469 C-36.20133362 219.51845166 -37.20685928 222.77553999 -38.21484375 226.078125 C-40.14151294 232.32616411 -42.15156153 238.54185757 -44.2265625 244.7421875 C-44.5037764 245.5706015 -44.7809903 246.3990155 -45.06660461 247.25253296 C-45.91824968 249.79374408 -46.77135524 252.33445997 -47.625 254.875 C-48.76483928 258.26762274 -49.90255092 261.66094874 -51.0390625 265.0546875 C-51.4188475 266.181595 -51.4188475 266.181595 -51.80630493 267.33126831 C-53.65798926 272.86124378 -55.32187218 278.40624059 -57 284 C-68.88 284 -80.76 284 -93 284 C-91.67916185 278.05622833 -90.31145941 272.55184119 -88.3125 266.86328125 C-88.05376099 266.11364105 -87.79502197 265.36400085 -87.52844238 264.59164429 C-86.97572335 262.99163673 -86.4208649 261.39236684 -85.86401367 259.79379272 C-84.68756536 256.4152436 -83.52278245 253.03271226 -82.35754395 249.65028381 C-81.76452258 247.92887456 -81.17101587 246.20763243 -80.57702637 244.48655701 C-77.84489936 236.56672677 -75.15749792 228.63265538 -72.5 220.6875 C-72.11585938 219.54772705 -71.73171875 218.4079541 -71.3359375 217.23364258 C-69.39628059 211.42272548 -67.58437873 205.59772769 -65.90234375 199.70703125 C-61.97820364 186.10329897 -57.3246936 172.71447608 -52.82939148 159.29134369 C-51.79726731 156.207529 -50.76772368 153.12285511 -49.73807335 150.03821373 C-43.27380703 130.67567974 -36.76561707 111.3285205 -30.07446289 92.04296875 C-27.69908773 85.17397699 -25.4117095 78.32181915 -23.60058594 71.27685547 C-22.29331392 66.32091287 -20.67957496 61.52242214 -18.59057617 56.8425293 C-16.96874308 53.07026068 -15.80755868 49.20476191 -14.70703125 45.25390625 C-11.97549866 35.72007565 -8.85292842 26.33457754 -5.6875 16.9375 C-3.810625 11.348125 -1.93375 5.75875 0 0 Z " fill="#FCFCFC" transform="translate(684,179)"/>
<path d="M0 0 C0.79491852 0.00370605 1.58983704 0.00741211 2.40884399 0.01123047 C29.76528057 0.1929025 51.22372888 7.07510813 71.5 26.0625 C83.35332775 38.39072069 92.64026797 54.72457417 96.375 71.4375 C88.88473017 74.78480007 81.43134201 77.42357466 73.50390625 79.54296875 C70.41322403 80.36022355 70.41322403 80.36022355 67.71484375 81.55078125 C65.375 82.4375 65.375 82.4375 61.375 82.4375 C61.0346875 81.36113281 60.694375 80.28476563 60.34375 79.17578125 C54.9109438 62.58359433 47.10793884 47.28332906 31.375 38.4375 C15.75208039 31.69479387 -4.31701147 29.21676112 -20.89453125 34.3359375 C-33.37368007 39.37044389 -43.029212 45.56491555 -48.66015625 58.078125 C-53.66982077 70.32847872 -52.6053574 83.84381806 -47.55859375 96.0078125 C-39.88645453 110.94696148 -24.43576074 116.53386303 -9.26831055 121.42773438 C-1.44276157 123.86948727 6.4802287 125.92331143 14.41845703 127.96240234 C43.5175622 135.51407323 75.50062732 145.57607172 92.5625 172.1875 C102.73437466 189.92724941 104.33385656 213.58457972 99.3515625 233.234375 C93.63567329 251.9824916 84.38250457 265.90709436 68.375 277.4375 C67.653125 277.95957031 66.93125 278.48164063 66.1875 279.01953125 C41.6403248 295.1712316 6.82651207 298.08285853 -21.44067383 292.84399414 C-39.83035686 289.02328246 -56.77845851 281.2507175 -70.625 268.4375 C-71.71361328 267.45136719 -71.71361328 267.45136719 -72.82421875 266.4453125 C-80.99467095 258.69505498 -86.48884737 249.36834359 -91.625 239.4375 C-92.08003906 238.57898438 -92.53507812 237.72046875 -93.00390625 236.8359375 C-99.625 224.06809701 -99.625 224.06809701 -99.625 217.4375 C-95.12501108 215.72220474 -90.62263557 214.01339021 -86.11791992 212.31054688 C-84.58566972 211.73029412 -83.05408796 211.14827301 -81.52319336 210.56445312 C-79.32318498 209.72581136 -77.12085469 208.89354887 -74.91796875 208.0625 C-74.23349167 207.80001465 -73.54901459 207.5375293 -72.84379578 207.26708984 C-69.95207244 206.18230992 -67.74184291 205.4375 -64.625 205.4375 C-64.356875 206.41847656 -64.08875 207.39945313 -63.8125 208.41015625 C-58.16283103 228.20501391 -48.87565363 245.33824703 -30.34375 255.71484375 C-19.47281272 260.93368139 -8.40621005 261.89927545 3.5 261.75 C5.43939453 261.75483398 5.43939453 261.75483398 7.41796875 261.75976562 C14.64300852 261.71934068 21.37389002 261.25122917 28.375 259.4375 C29.43589844 259.16550781 30.49679687 258.89351563 31.58984375 258.61328125 C42.82807238 255.04994047 52.21573123 249.7756732 58.375 239.4375 C62.55319914 230.74889017 63.60042967 223.43532195 63.6875 213.875 C63.71650391 212.84052734 63.74550781 211.80605469 63.77539062 210.74023438 C63.85334117 201.16431025 61.62540055 191.95548867 55.4375 184.40625 C46.37953833 175.76001386 35.06295009 171.30068727 23.375 167.4375 C22.68937988 167.20305176 22.00375977 166.96860352 21.29736328 166.72705078 C15.20795931 164.65640838 9.05391488 162.845347 2.875 161.0625 C1.29223267 160.60133789 1.29223267 160.60133789 -0.32250977 160.13085938 C-4.99896812 158.76903945 -9.67687236 157.41656262 -14.37109375 156.1171875 C-39.9755933 148.96861931 -65.88335032 137.83648973 -80.05078125 114.04296875 C-88.87982728 97.50478517 -91.07309509 73.66732307 -86.19091797 55.58251953 C-82.25947296 43.3360836 -75.64997513 33.47779767 -66.625 24.4375 C-65.93792969 23.73882812 -65.25085938 23.04015625 -64.54296875 22.3203125 C-47.08032736 5.66762664 -23.47546754 -0.19563654 0 0 Z " fill="#FCFCFC" transform="translate(461.625,174.5625)"/>
<path d="M0 0 C2.30836321 0.00851346 4.6142419 -0.02038721 6.92236328 -0.05200195 C31.11633359 -0.16645628 54.05604415 8.51613326 71.52392578 25.43823242 C82.40762913 36.41176495 97.44189453 56.34771653 97.44189453 72.44604492 C96.34232422 72.76057617 95.24275391 73.07510742 94.10986328 73.39916992 C84.12523883 76.27527381 84.12523883 76.27527381 74.31689453 79.69604492 C70.31450663 81.21145286 66.70098444 82.06745915 62.44189453 82.44604492 C60.63759699 78.38637546 59.057806 74.34108332 57.62939453 70.13354492 C52.44794506 55.87481931 42.78065331 43.85568971 28.96923828 37.26635742 C19.97473076 33.45724604 11.42957115 32.07487397 1.69189453 32.13354492 C0.72541992 32.13845947 -0.24105469 32.14337402 -1.23681641 32.1484375 C-16.50343413 32.39776668 -29.03519113 36.32962286 -40.29248047 46.98510742 C-49.11274403 56.56573853 -50.9553145 66.09241532 -50.74169922 78.75854492 C-50.19295184 89.78019445 -46.84867911 98.09115396 -39.55810547 106.44604492 C-24.94256908 117.91552517 -6.32393541 122.18310324 11.25439453 126.88354492 C41.84920986 135.09085893 76.15916944 144.46226118 93.63720703 173.08666992 C104.0927802 192.54942517 104.73759206 218.50873649 98.76220703 239.60229492 C92.19498847 259.85878475 76.89491362 274.0072882 58.44189453 283.44604492 C56.80414062 284.28522461 56.80414062 284.28522461 55.13330078 285.14135742 C27.49544341 298.09762036 -9.3129705 298.27429351 -37.79638672 288.02026367 C-49.01875243 283.4889012 -59.61854464 277.65742662 -68.55810547 269.44604492 C-69.37408203 268.7215918 -70.19005859 267.99713867 -71.03076172 267.25073242 C-82.726401 256.29623875 -89.64665171 243.12275769 -95.55810547 228.44604492 C-96.12168593 227.20636081 -96.68548241 225.96677488 -97.24951172 224.72729492 C-98.55810547 221.44604492 -98.55810547 221.44604492 -98.55810547 217.44604492 C-94.05811654 215.73074966 -89.55574104 214.02193513 -85.05102539 212.3190918 C-83.51877518 211.73883904 -81.98719343 211.15681794 -80.45629883 210.57299805 C-78.25629045 209.73435628 -76.05396016 208.90209379 -73.85107422 208.07104492 C-73.16659714 207.80855957 -72.48212006 207.54607422 -71.77690125 207.27563477 C-68.88517791 206.19085484 -66.67494838 205.44604492 -63.55810547 205.44604492 C-63.3827124 205.98382568 -63.20731934 206.52160645 -63.02661133 207.07568359 C-56.44330574 227.06445045 -49.34099878 245.24305664 -29.55810547 255.44604492 C-11.13273781 263.56248262 13.80254779 264.77220048 33.22705078 258.71948242 C46.41683616 253.49485298 55.09520124 247.6391561 61.77783203 234.89916992 C64.53139518 228.14219936 64.81742829 221.52356729 64.87939453 214.32104492 C64.88962646 213.40291016 64.8998584 212.48477539 64.91040039 211.53881836 C64.75879028 199.70262748 61.13426516 189.8232235 52.69189453 181.44604492 C36.05006903 167.56432707 11.31474653 162.7181301 -9.12060547 157.32104492 C-28.93712413 152.06217021 -48.82681774 145.0291526 -64.55810547 131.44604492 C-65.37794922 130.8247168 -66.19779297 130.20338867 -67.04248047 129.56323242 C-78.703462 119.74917653 -84.91114465 103.26869232 -86.55810547 88.44604492 C-87.5907307 64.74155915 -84.9286655 44.74904881 -68.55810547 26.44604492 C-49.80780893 7.81129283 -26.06297699 -0.1458646 0 0 Z " fill="#FCFCFC" transform="translate(939.55810546875,174.553955078125)"/>
<path d="M0 0 C11.88 0 23.76 0 36 0 C36.02258418 36.16289863 36.0404976 72.32579521 36.05106533 108.48869943 C36.05231611 112.75345263 36.05361042 117.01820581 36.05493164 121.28295898 C36.05519395 122.13203127 36.05545626 122.98110355 36.05572652 123.8559053 C36.06008347 137.62246677 36.06797116 151.38902408 36.0771528 165.15558308 C36.08648864 179.27057254 36.09205546 193.38555981 36.09408849 207.50055224 C36.09546387 216.21743619 36.09981522 224.9343084 36.10791647 233.65118874 C36.11318307 239.62036692 36.11480449 245.58953899 36.11350138 251.55871933 C36.11285786 255.00788013 36.11387701 258.45702034 36.11920547 261.90617752 C36.12413506 265.63680422 36.12300102 269.36737947 36.12025452 273.0980072 C36.12316736 274.20012368 36.1260802 275.30224015 36.12908131 276.43775409 C36.12709026 277.42902949 36.12509921 278.42030488 36.12304783 279.44161892 C36.12361741 280.73513622 36.12361741 280.73513622 36.1241985 282.05478519 C36 284 36 284 35 285 C23.45 285 11.9 285 0 285 C0 190.95 0 96.9 0 0 Z " fill="#F7F7F7" transform="translate(1098,179)"/>
<path d="M0 0 C2.20484783 3.30727174 3.13294524 6.47644646 4.1875 10.25 C4.63177596 11.79717302 5.07714669 13.34403197 5.5234375 14.890625 C5.7615918 15.71884766 5.99974609 16.54707031 6.24511719 17.40039062 C10.87448 33.34264651 15.93470521 49.15371061 21.02246094 64.95410156 C22.27412077 68.85412854 23.51058359 72.75888303 24.74682617 76.66381836 C27.163982 84.29832139 29.62684289 91.9123858 32.1875 99.5 C39 119.74901186 39 119.74901186 39 125 C13.59 125 -11.82 125 -38 125 C-34.6291464 111.51658558 -34.6291464 111.51658558 -32.87890625 106.4140625 C-32.5029834 105.30635498 -32.12706055 104.19864746 -31.73974609 103.05737305 C-31.35125488 101.92468994 -30.96276367 100.79200684 -30.5625 99.625 C-27.86023982 91.63840373 -25.24347496 83.6824336 -23.015625 75.55078125 C-21.65446608 70.79196026 -20.13850421 66.08722627 -18.625 61.375 C-13.59303433 45.67853079 -8.93590176 29.87813926 -4.359375 14.04345703 C-2.99288376 9.32953674 -1.60436215 4.640067 0 0 Z " fill="#050505" transform="translate(703,218)"/>
<path d="M0 0 C19 0 19 0 25 5 C26.45147903 7.90295805 26.37239025 9.77261779 26 13 C23.57184111 16.41254763 21.48478855 18.67680763 18 21 C18.5775 22.04800781 19.155 23.09601563 19.75 24.17578125 C20.50032804 25.55450902 21.25031008 26.93342514 22 28.3125 C22.3815625 29.00279297 22.763125 29.69308594 23.15625 30.40429688 C26 35.66015625 26 35.66015625 26 39 C24.68 39 23.36 39 22 39 C20.66042079 36.21128823 19.32941565 33.41856938 18 30.625 C17.6184375 29.8309375 17.236875 29.036875 16.84375 28.21875 C16.4828125 27.45820313 16.121875 26.69765625 15.75 25.9140625 C15.41484375 25.2123291 15.0796875 24.5105957 14.734375 23.78759766 C14 22 14 22 14 20 C10.37 20 6.74 20 3 20 C3 26.27 3 32.54 3 39 C2.01 39 1.02 39 0 39 C0 26.13 0 13.26 0 0 Z " fill="#FCFCFC" transform="translate(572,482)"/>
<path d="M0 0 C1.32 0 2.64 0 4 0 C4 13.2 4 26.4 4 40 C2.35 39.67 0.7 39.34 -1 39 C-2.34187818 39.6492959 -3.67479497 40.31731862 -5 41 C-8.78336212 41.4829824 -10.47234917 41.32378574 -13.75 39.3125 C-17.6358909 35.31866769 -18.29159129 31.46414179 -18.3125 26 C-18.32925781 24.989375 -18.34601563 23.97875 -18.36328125 22.9375 C-17.94479398 19.55360291 -17.0203513 17.72534508 -15 15 C-12.00261059 13.00174039 -11.36652492 12.72449602 -8 12.75 C-7.319375 12.74484375 -6.63875 12.7396875 -5.9375 12.734375 C-4 13 -4 13 -1 15 C-0.67 10.05 -0.34 5.1 0 0 Z " fill="#E3E3E3" transform="translate(1130,481)"/>
<path d="M0 0 C1.32 0 2.64 0 4 0 C4 13.2 4 26.4 4 40 C2.68 40 1.36 40 0 40 C-0.33 39.34 -0.66 38.68 -1 38 C-1.66 38.66 -2.32 39.32 -3 40 C-6.38232967 40.55979324 -9.61729421 40.55194392 -13 40 C-16.28028463 36.95973619 -17.89426763 34.36758759 -18.23828125 29.91796875 C-18.26277344 28.68691406 -18.28726563 27.45585937 -18.3125 26.1875 C-18.34988281 24.96417969 -18.38726563 23.74085938 -18.42578125 22.48046875 C-17.92980695 18.4262201 -16.84899719 16.85956861 -14 14 C-10.87293041 12.4364652 -7.42017557 12.60041513 -4 13 C-3.01 13.66 -2.02 14.32 -1 15 C-0.67 10.05 -0.34 5.1 0 0 Z " fill="#E1E1E1" transform="translate(758,481)"/>
<path d="M0 0 C1.32 0 2.64 0 4 0 C4.33 4.95 4.66 9.9 5 15 C5.66 14.34 6.32 13.68 7 13 C10.85258208 12.12931645 14.45310523 12.1088882 17.92578125 14.109375 C21.8129301 17.85736578 22.41773532 21.31093001 22.5625 26.625 C22.47897943 31.31328796 21.81245735 34.21016385 19 38 C15.842224 40.105184 15.04602866 40.25289344 11.4375 40.1875 C10.25994141 40.17783203 10.25994141 40.17783203 9.05859375 40.16796875 C7 40 7 40 5 39 C5 38.34 5 37.68 5 37 C4.34 37 3.68 37 3 37 C3 37.99 3 38.98 3 40 C2.01 40 1.02 40 0 40 C0 26.8 0 13.6 0 0 Z " fill="#EDEDED" transform="translate(469,481)"/>
<path d="M0 0 C0.99 0 1.98 0 3 0 C3.33 0.99 3.66 1.98 4 3 C4.33 2.505 4.66 2.01 5 1.5 C7.59861403 -0.44896053 9.80891645 -0.47865396 13 -0.35546875 C16.17313063 0.20850564 17.82529098 1.69736692 20 4 C22.88133057 8.68723494 22.64823904 13.6674622 22 19 C20.63283422 22.26958986 18.49769227 24.50230773 16 27 C13.6875 27.265625 13.6875 27.265625 11 27.25 C9.6696875 27.25773438 9.6696875 27.25773438 8.3125 27.265625 C6 27 6 27 4 25 C3.67 28.63 3.34 32.26 3 36 C2.01 36 1.02 36 0 36 C0 24.12 0 12.24 0 0 Z " fill="#E0E0E0" transform="translate(955,494)"/>
<path d="M0 0 C3.61376334 2.15288029 5.41763144 4.155122 7 8 C7.7500384 13.90289963 7.45404174 18.99759473 4 24 C1.17702449 26.97980748 -0.36747653 27.89649616 -4.4375 28.5625 C-8.99293825 27.84322028 -10.83834332 26.30871048 -14 23 C-16.78170681 18.57455735 -16.7947425 13.05959832 -16 8 C-12.36607045 0.50248736 -7.87988539 -0.99521044 0 0 Z " fill="#060606" transform="translate(800,494)"/>
<path d="M0 0 C3.89090303 2.91817727 6.50578255 6.23238229 7.37109375 11.078125 C7.55865946 17.21262709 5.99206826 21.31072545 2 26 C-1.76875875 28.51250583 -3.53150134 28.53016086 -8 28 C-11.45211549 25.96011357 -13.7774133 23.33388005 -16 20 C-16.83899706 14.03021321 -17.3087752 7.75529243 -13.625 2.6875 C-9.67189556 -1.0778085 -5.14496641 -1.23685336 0 0 Z " fill="#060606" transform="translate(1000,494)"/>
<path d="M0 0 C3.71168084 0.96768822 5.55692692 2.80821076 8.1875 5.5703125 C10.48653194 10.16837638 10.02101288 17.05249897 8.43359375 21.84765625 C7.07921903 24.35988857 5.57922367 26.26999102 3.3125 28.0078125 C-1.20623072 29.2039471 -3.90158228 29.06080666 -8.0625 26.8203125 C-11.60588995 23.92117527 -12.60289345 22.11212994 -13.21875 17.58203125 C-13.50345518 7.48685995 -13.50345518 7.48685995 -10.375 3.2578125 C-7.18394977 0.23272706 -4.32080056 -0.33573788 0 0 Z " fill="#0A0A0A" transform="translate(916.8125,493.4296875)"/>
<path d="M0 0 C1.2065625 0.0309375 1.2065625 0.0309375 2.4375 0.0625 C4.15436415 4.97108767 5.86312169 9.88239371 7.56445312 14.79638672 C8.14426701 16.46740515 8.72628228 18.13766144 9.31054688 19.80712891 C10.15034683 22.20798557 10.98217194 24.61147866 11.8125 27.015625 C12.07498535 27.76056213 12.3374707 28.50549927 12.60791016 29.27301025 C13.80312719 32.7575569 14.4375 35.33572127 14.4375 39.0625 C13.1175 39.0625 11.7975 39.0625 10.4375 39.0625 C9.93237756 37.45993892 9.43358373 35.85538208 8.9375 34.25 C8.6590625 33.35667969 8.380625 32.46335937 8.09375 31.54296875 C7.4375 29.0625 7.4375 29.0625 7.4375 26.0625 C2.4875 26.3925 -2.4625 26.7225 -7.5625 27.0625 C-8.8825 31.0225 -10.2025 34.9825 -11.5625 39.0625 C-12.8825 39.0625 -14.2025 39.0625 -15.5625 39.0625 C-13.36626276 30.56647245 -10.72808051 22.25523031 -7.9375 13.9375 C-7.53015625 12.70773437 -7.1228125 11.47796875 -6.703125 10.2109375 C-6.31382812 9.045625 -5.92453125 7.8803125 -5.5234375 6.6796875 C-5.17071777 5.62378418 -4.81799805 4.56788086 -4.45458984 3.47998047 C-3.19921432 0.07802962 -3.19921432 0.07802962 0 0 Z " fill="#DEDEDE" transform="translate(548.5625,481.9375)"/>
<path d="M0 0 C0.94746094 -0.01933594 1.89492187 -0.03867187 2.87109375 -0.05859375 C6.34648762 0.5820086 7.35635402 1.71459911 9.5625 4.4375 C10.10839844 7.00292969 10.10839844 7.00292969 10.171875 9.859375 C10.20410156 10.88417969 10.23632812 11.90898437 10.26953125 12.96484375 C10.28371094 14.02832031 10.29789063 15.09179688 10.3125 16.1875 C10.34214844 17.26644531 10.37179687 18.34539062 10.40234375 19.45703125 C10.47296936 22.11726244 10.52570196 24.77662102 10.5625 27.4375 C9.2425 27.4375 7.9225 27.4375 6.5625 27.4375 C6.2325 26.7775 5.9025 26.1175 5.5625 25.4375 C4.5725 26.0975 3.5825 26.7575 2.5625 27.4375 C-0.03125 27.7734375 -0.03125 27.7734375 -2.9375 27.8125 C-3.8965625 27.84085938 -4.855625 27.86921875 -5.84375 27.8984375 C-8.4375 27.4375 -8.4375 27.4375 -10.24609375 25.62890625 C-12.04901301 22.31271705 -12.02296379 20.14543732 -11.4375 16.4375 C-8.57472565 12.77951055 -6.94519685 11.69645557 -2.3671875 10.91015625 C0.61538383 10.65279489 3.5698377 10.49076745 6.5625 10.4375 C5.9025 8.4575 5.2425 6.4775 4.5625 4.4375 C3.10507537 4.35653197 1.64637193 4.29832226 0.1875 4.25 C-1.03066406 4.19779297 -1.03066406 4.19779297 -2.2734375 4.14453125 C-2.98757813 4.24121094 -3.70171875 4.33789062 -4.4375 4.4375 C-5.4275 5.9225 -5.4275 5.9225 -6.4375 7.4375 C-7.7575 7.4375 -9.0775 7.4375 -10.4375 7.4375 C-8.01217759 2.02716539 -6.1022915 0.00827991 0 0 Z " fill="#E9E9E9" transform="translate(1044.4375,493.5625)"/>
<path d="M0 0 C1.32 0 2.64 0 4 0 C4 0.99 4 1.98 4 3 C4.495 2.505 4.99 2.01 5.5 1.5 C9.22645843 -0.73587506 11.67911757 -0.41151261 16 0 C18 1.5 18 1.5 19 3 C21.6905528 1.77992056 21.6905528 1.77992056 24 0 C31.25730561 -0.59486112 31.25730561 -0.59486112 34.10717773 1.68774414 C36.42431789 4.51834318 36.47085325 5.81160394 36.390625 9.421875 C36.37773437 10.44667969 36.36484375 11.47148437 36.3515625 12.52734375 C36.31804687 13.59082031 36.28453125 14.65429688 36.25 15.75 C36.23195313 16.82894531 36.21390625 17.90789062 36.1953125 19.01953125 C36.14821415 21.68058788 36.082456 24.33984254 36 27 C34.68 27 33.36 27 32 27 C31.97494385 26.3387915 31.9498877 25.67758301 31.92407227 24.99633789 C31.80846898 22.01817695 31.68558246 19.0403608 31.5625 16.0625 C31.52318359 15.02158203 31.48386719 13.98066406 31.44335938 12.90820312 C31.40146484 11.91884766 31.35957031 10.92949219 31.31640625 9.91015625 C31.27974854 8.99371338 31.24309082 8.07727051 31.20532227 7.13305664 C31.22996136 5.0179272 31.22996136 5.0179272 30 4 C24.97500306 4.28469203 24.97500306 4.28469203 21 7 C20.63047951 9.12860662 20.63047951 9.12860662 20.5859375 11.5703125 C20.54726563 12.46621094 20.50859375 13.36210937 20.46875 14.28515625 C20.42234375 15.69087891 20.42234375 15.69087891 20.375 17.125 C20.33632813 18.06988281 20.29765625 19.01476562 20.2578125 19.98828125 C20.16338654 22.32532375 20.07781606 24.66235501 20 27 C18.68 27 17.36 27 16 27 C15.97494385 26.3387915 15.9498877 25.67758301 15.92407227 24.99633789 C15.80846898 22.01817695 15.68558246 19.0403608 15.5625 16.0625 C15.52318359 15.02158203 15.48386719 13.98066406 15.44335938 12.90820312 C15.40146484 11.91884766 15.35957031 10.92949219 15.31640625 9.91015625 C15.27974854 8.99371338 15.24309082 8.07727051 15.20532227 7.13305664 C15.22996136 5.0179272 15.22996136 5.0179272 14 4 C8.97500306 4.28469203 8.97500306 4.28469203 5 7 C4.63047951 9.12860662 4.63047951 9.12860662 4.5859375 11.5703125 C4.54726563 12.46621094 4.50859375 13.36210937 4.46875 14.28515625 C4.4378125 15.22230469 4.406875 16.15945313 4.375 17.125 C4.33632813 18.06988281 4.29765625 19.01476562 4.2578125 19.98828125 C4.16338654 22.32532375 4.07781606 24.66235501 4 27 C2.68 27 1.36 27 0 27 C0 18.09 0 9.18 0 0 Z " fill="#D4D4D4" transform="translate(423,494)"/>
<path d="M0 0 C3.47485838 2.07012839 5.74352278 4.11634312 7 8 C7 9.98 7 11.96 7 14 C0.73 14 -5.54 14 -12 14 C-11.01 16.97 -10.02 19.94 -9 23 C-6.12529507 24.43735246 -4.18105412 24.38172649 -1 24 C1.40406384 21.62157423 1.40406384 21.62157423 3 19 C3.99 19.33 4.98 19.66 6 20 C5.4376049 23.26189156 4.5859495 24.91134848 2 27 C-1.65288193 28.21762731 -4.15754136 28.39075851 -8 28 C-12.16030385 25.25262953 -14.90513887 22.92687509 -16 18 C-16.55221388 12.85750825 -16.59972215 9.15808415 -14.1875 4.5 C-9.8980211 -0.4022616 -6.19591664 -0.8929089 0 0 Z " fill="#D2D2D2" transform="translate(1098,494)"/>
<path d="M0 0 C2.538648 2.045022 4.39559048 4.13390847 6.25 6.8125 C6.25 7.4725 6.25 8.1325 6.25 8.8125 C4.93 8.8125 3.61 8.8125 2.25 8.8125 C1.71375 7.9875 1.1775 7.1625 0.625 6.3125 C-1.46320823 3.61248919 -1.46320823 3.61248919 -4.15625 3.41015625 C-6.75881815 3.37650235 -9.18084711 3.38729177 -11.75 3.8125 C-14.04827312 5.69188172 -14.04827312 5.69188172 -14.0625 8.75 C-14.01337038 11.70577106 -14.01337038 11.70577106 -12.6640625 13.35546875 C-9.02769713 16.12355913 -4.41657461 17.00075138 -0.09765625 18.3359375 C3.62710758 19.97883216 5.11417653 21.38573654 7.25 24.8125 C7.87502678 29.10955912 7.53872614 31.24574127 5.5625 35.125 C2.48515576 38.70137304 0.56693259 39.56411862 -4.08203125 40.0625 C-9.83718269 40.33860921 -13.25633887 39.74445349 -17.75 35.8125 C-19.75 32.8125 -19.75 32.8125 -19.375 30.625 C-19.16875 30.026875 -18.9625 29.42875 -18.75 28.8125 C-17.76 28.8125 -16.77 28.8125 -15.75 28.8125 C-15.481875 29.781875 -15.21375 30.75125 -14.9375 31.75 C-14.545625 32.760625 -14.15375 33.77125 -13.75 34.8125 C-9.69732513 36.16339162 -5.98707754 36.35551896 -1.75 35.8125 C0.94138543 34.37235074 0.94138543 34.37235074 2.25 31.8125 C2.91680368 28.76970628 2.91680368 28.76970628 2.25 25.8125 C-1.64730168 22.14004265 -6.69675322 20.91471763 -11.65625 19.19140625 C-14.85648407 17.7650393 -16.60593186 16.56474132 -18.75 13.8125 C-19.34800388 9.10321941 -19.46746637 6.99119474 -17 2.9375 C-12.02648054 -1.75971282 -6.34850784 -2.74140111 0 0 Z " fill="#E5E5E5" transform="translate(381.75,482.1875)"/>
<path d="M0 0 C3.8026029 2.0050088 5.61790841 3.42686262 8 7 C8 7.99 8 8.98 8 10 C5.13707027 9.59101004 4.18671386 9.22820583 2.3125 6.9375 C-0.80560315 4.3250352 -3.02622154 4.59844222 -6.9765625 4.6640625 C-9.22331046 4.83547871 -9.22331046 4.83547871 -11 7 C-11.58342353 10.45769191 -11.58342353 10.45769191 -11 14 C-6.92173685 16.99657328 -2.38918367 18.31220329 2.37890625 19.83984375 C5.37724447 21.16697706 6.98829274 22.41351924 9 25 C9.80272212 28.40464899 9.65464853 31.57141703 9 35 C6.47323961 38.34625024 4.96066458 39.67977847 1 41 C-4.08217995 41.53358516 -7.90501673 41.56704491 -12.5 39.1875 C-15 37 -15 37 -17 34 C-16.625 31.8125 -16.625 31.8125 -16 30 C-12.23145777 31.25618074 -11.92041544 32.66014706 -10 36 C-6.26025568 37.86987216 -1.53209172 37.30641834 2.5 36.5 C2.995 36.335 3.49 36.17 4 36 C4.2475 34.7625 4.495 33.525 4.75 32.25 C4.88921875 31.55390625 5.0284375 30.8578125 5.171875 30.140625 C5.17937129 27.84019099 5.17937129 27.84019099 3.38671875 25.85546875 C0.64774899 23.72615511 -1.60188797 22.97527151 -4.9375 22.0625 C-13.24692308 19.42458791 -13.24692308 19.42458791 -16 15 C-16.81032229 11.78254385 -16.87262944 9.20902439 -16 6 C-12.14925808 0.15831722 -6.67484479 -1.44419369 0 0 Z " fill="#E4E4E4" transform="translate(673,481)"/>
<path d="M0 0 C4.66890575 1.70594633 7.28954357 3.83006703 10 8 C10 8.99 10 9.98 10 11 C9.01 11.33 8.02 11.66 7 12 C6.38125 11.030625 5.7625 10.06125 5.125 9.0625 C3.34321154 5.97164638 3.34321154 5.97164638 1 5 C-2.05940837 4.57925622 -4.9459708 4.52000577 -8 5 C-11.28175318 7.52968474 -12.69243777 9.07731331 -14 13 C-14.74477826 23.96854913 -14.74477826 23.96854913 -11 34 C-7.78169935 36.14553377 -6.73213493 36.29583868 -3 36.3125 C-2.13375 36.32925781 -1.2675 36.34601562 -0.375 36.36328125 C2.45564858 35.93030375 3.26420913 35.22482173 5 33 C6.17574711 30.90010348 6.17574711 30.90010348 7 29 C8.32 29.33 9.64 29.66 11 30 C9.38478778 33.79890695 7.90912925 37.14434894 4.875 40 C-0.70869214 41.94215379 -5.91699515 41.94324748 -11.3125 39.5 C-16.84192825 34.35634581 -19.21643974 30.39778476 -19.59375 22.76904297 C-19.68186538 16.37104005 -19.65196468 10.64898259 -15.48046875 5.44921875 C-10.61296382 0.68445799 -6.69277523 -1.09761514 0 0 Z " fill="#E9E8E9" transform="translate(624,481)"/>
<path d="M0 0 C3.5 0.5625 3.5 0.5625 5.9375 2.375 C8.25526302 7.10323656 8.24374717 11.39500661 7.5 16.5625 C6 19.75 6 19.75 3.5 21.5625 C0.48442829 22.22993036 -1.32268211 22.01640256 -4.5 21.5625 C-6.93979067 19.25024385 -7.46457066 17.81529314 -7.93359375 14.46875 C-7.93488281 13.3446875 -7.93617188 12.220625 -7.9375 11.0625 C-7.95683594 9.9384375 -7.97617187 8.814375 -7.99609375 7.65625 C-7.17901621 2.56077433 -4.99640817 0.80299417 0 0 Z " fill="#080808" transform="translate(965.5,496.4375)"/>
<path d="M0 0 C2.79738593 2.15885219 3.88109121 3.31931742 4.49609375 6.83984375 C4.47675781 7.86207031 4.45742188 8.88429688 4.4375 9.9375 C4.43621094 10.95714844 4.43492187 11.97679687 4.43359375 13.02734375 C3.94025016 16.40963631 3.12778749 18.33059388 1 21 C-4.28645833 21.75520833 -4.28645833 21.75520833 -7 21 C-9.83967814 18.8702414 -10.866605 17.66881491 -11.56640625 14.16015625 C-11.55592716 5.85024155 -11.55592716 5.85024155 -8.875 1.75 C-5.48695834 -0.31228623 -3.89180376 -0.74523902 0 0 Z " fill="#0A0A0A" transform="translate(483,497)"/>
<path d="M0 0 C4.07000277 0.72678621 5.04833326 1.36846643 7.5 4.625 C7.99609375 7.97265625 7.99609375 7.97265625 7.9375 11.6875 C7.93621094 12.91597656 7.93492188 14.14445312 7.93359375 15.41015625 C7.5 18.625 7.5 18.625 6.21875 20.5234375 C3.74279317 22.11030074 1.33107173 22.22147002 -1.55859375 22.09375 C-3.5 21.625 -3.5 21.625 -6 19.1875 C-7.86281512 14.76331408 -8.31719508 11.35125197 -7.5 6.625 C-5.56264245 2.20782478 -4.80753065 0.85848762 0 0 Z " fill="#0A0A0A" transform="translate(1122.5,496.375)"/>
<path d="M0 0 C4.07000277 0.72678621 5.04833326 1.36846643 7.5 4.625 C7.99609375 7.97265625 7.99609375 7.97265625 7.9375 11.6875 C7.93621094 12.91597656 7.93492187 14.14445312 7.93359375 15.41015625 C7.5 18.625 7.5 18.625 6.21875 20.5234375 C3.74279317 22.11030074 1.33107173 22.22147002 -1.55859375 22.09375 C-3.5 21.625 -3.5 21.625 -6 19.1875 C-7.86281512 14.76331408 -8.31719508 11.35125197 -7.5 6.625 C-5.56264245 2.20782478 -4.80753065 0.85848762 0 0 Z " fill="#080808" transform="translate(750.5,496.375)"/>
<path d="M0 0 C13.3107415 -0.4033558 13.3107415 -0.4033558 18 3 C19 4 19 4 19.3125 6.8125 C19 10 19 10 17.125 12.3125 C12.01807947 16.36799572 6.32017377 15.06196249 0 15 C0 10.05 0 5.1 0 0 Z " fill="#111111" transform="translate(575,485)"/>
<path d="M0 0 C3.61376334 2.15288029 5.41763144 4.155122 7 8 C7.7500384 13.90289963 7.45404174 18.99759473 4 24 C1.17702449 26.97980748 -0.36747653 27.89649616 -4.4375 28.5625 C-8.99293825 27.84322028 -10.83834332 26.30871048 -14 23 C-16.78170681 18.57455735 -16.7947425 13.05959832 -16 8 C-12.36607045 0.50248736 -7.87988539 -0.99521044 0 0 Z M-10.4375 4.875 C-12.64439112 9.28878224 -12.68460829 13.15201802 -12 18 C-10.83567931 20.48050929 -9.90574048 22.09425952 -8 24 C-5.07462235 24.28310106 -2.84502508 24.47417085 0 24 C2.56868148 21.67213241 2.907835 19.77815263 3.30859375 16.39453125 C3.50617925 11.95783859 3.41042629 8.83726963 1.4375 4.8125 C-0.97713716 2.73541201 -0.97713716 2.73541201 -4.5 2.375 C-8.03487863 2.72880862 -8.03487863 2.72880862 -10.4375 4.875 Z " fill="#D7D7D7" transform="translate(800,494)"/>
<path d="M0 0 C3.89090303 2.91817727 6.50578255 6.23238229 7.37109375 11.078125 C7.55865946 17.21262709 5.99206826 21.31072545 2 26 C-1.76875875 28.51250583 -3.53150134 28.53016086 -8 28 C-11.45211549 25.96011357 -13.7774133 23.33388005 -16 20 C-16.83899706 14.03021321 -17.3087752 7.75529243 -13.625 2.6875 C-9.67189556 -1.0778085 -5.14496641 -1.23685336 0 0 Z M-12 7 C-12.59403955 9.86812007 -12.59403955 9.86812007 -12.4375 12.9375 C-12.43621094 13.95714844 -12.43492187 14.97679687 -12.43359375 16.02734375 C-11.94004755 19.41102538 -11.13438687 21.33322638 -9 24 C-6.2904711 24.8303395 -3.76654019 24.53713619 -1 24 C1.67431489 22.18836733 1.95920359 21.12238923 3 18 C3.49746658 13.18843796 3.62603732 9.25207464 1.4375 4.875 C-0.9622527 2.7211 -0.9622527 2.7211 -4.5 2.4375 C-8.57630108 3.09261982 -9.51539321 3.79093983 -12 7 Z " fill="#DEDEDE" transform="translate(1000,494)"/>
<path d="M0 0 C1.32 0 2.64 0 4 0 C4.33 7.59 4.66 15.18 5 23 C12.24861231 23.69760862 12.24861231 23.69760862 14.96801758 21.79174805 C16.27147528 19.52865932 16.42865599 17.94020199 16.51171875 15.33203125 C16.54716797 14.43935547 16.58261719 13.54667969 16.61914062 12.62695312 C16.64169922 11.69818359 16.66425781 10.76941406 16.6875 9.8125 C16.72166016 8.87212891 16.75582031 7.93175781 16.79101562 6.96289062 C16.87348218 4.64204607 16.94263403 2.32157852 17 0 C18.32 0 19.64 0 21 0 C21 8.91 21 17.82 21 27 C19.68 27 18.36 27 17 27 C16.67 26.34 16.34 25.68 16 25 C15.01 25.66 14.02 26.32 13 27 C10.625 27.3359375 10.625 27.3359375 8 27.375 C7.13375 27.40335938 6.2675 27.43171875 5.375 27.4609375 C3 27 3 27 1.36987305 25.31005859 C-0.29624187 22.50043832 -0.34710636 20.82638164 -0.29296875 17.578125 C-0.28330078 16.55332031 -0.27363281 15.52851563 -0.26367188 14.47265625 C-0.23853516 13.40917969 -0.21339844 12.34570312 -0.1875 11.25 C-0.17396484 10.17105469 -0.16042969 9.09210938 -0.14648438 7.98046875 C-0.11116584 5.3198058 -0.06184199 2.66015704 0 0 Z " fill="#DADADA" transform="translate(710,494)"/>
<path d="M0 0 C1.87988281 0.23413086 1.87988281 0.23413086 4 1 C5.09667969 2.85766602 5.09667969 2.85766602 5.921875 5.25390625 C6.19612305 6.0229126 6.47037109 6.79191895 6.75292969 7.58422852 C7.08196289 8.56705811 7.41099609 9.5498877 7.75 10.5625 C8.8225 13.676875 9.895 16.79125 11 20 C13.31 13.4 15.62 6.8 18 0 C19.32 0 20.64 0 22 0 C19.76186977 6.77714199 17.45433238 13.5255341 15.0625 20.25 C14.72798828 21.21679688 14.39347656 22.18359375 14.04882812 23.1796875 C10.73186623 32.45951152 10.73186623 32.45951152 7 36 C3.25 36.8125 3.25 36.8125 0 37 C-0.33 35.68 -0.66 34.36 -1 33 C0.11375 32.9175 1.2275 32.835 2.375 32.75 C6.00832261 32.43237038 6.00832261 32.43237038 7.2578125 30.1875 C9.48665728 23.61827329 4.47416291 14.66743153 2.03320312 8.49707031 C0.86561038 5.51466367 0 3.23392789 0 0 Z " fill="#E9E9E9" transform="translate(394,494)"/>
<path d="M0 0 C3.71168084 0.96768822 5.55692692 2.80821076 8.1875 5.5703125 C10.48653194 10.16837638 10.02101288 17.05249897 8.43359375 21.84765625 C7.07921903 24.35988857 5.57922367 26.26999102 3.3125 28.0078125 C-1.20623072 29.2039471 -3.90158228 29.06080666 -8.0625 26.8203125 C-11.60588995 23.92117527 -12.60289345 22.11212994 -13.21875 17.58203125 C-13.50345518 7.48685995 -13.50345518 7.48685995 -10.375 3.2578125 C-7.18394977 0.23272706 -4.32080056 -0.33573788 0 0 Z M-7.125 5.4453125 C-10.01505384 9.08463955 -10.16277746 11.69447167 -10.08203125 16.23828125 C-9.64631539 20.00817069 -8.51157549 21.9387139 -5.8125 24.5703125 C-2.94307825 25.434667 -0.68192175 25.434667 2.1875 24.5703125 C5.51586027 21.32516123 6.43587868 18.53159439 6.625 14.0078125 C6.44957501 10.15495984 5.6690047 7.62447213 3.1875 4.5703125 C-0.63431054 2.65940723 -3.80567122 2.75396484 -7.125 5.4453125 Z " fill="#ECEBEC" transform="translate(916.8125,493.4296875)"/>
<path d="M0 0 C3.0625 2 3.0625 2 5 4 C4.67 5.32 4.34 6.64 4 8 C3.34 8 2.68 8 2 8 C1.608125 7.34 1.21625 6.68 0.8125 6 C-0.94839144 3.62019089 -0.94839144 3.62019089 -4.5 3.5625 C-7.853881 3.71176846 -7.853881 3.71176846 -9.69921875 5.15625 C-11.55206231 7.78250273 -11.36364503 9.75470565 -11.3125 12.9375 C-11.30863281 13.97777344 -11.30476562 15.01804687 -11.30078125 16.08984375 C-11.00916371 18.91133812 -10.4531841 20.5973251 -9 23 C-4.97885665 23.27728472 -4.97885665 23.27728472 -1 23 C0.84315671 21.0995533 0.84315671 21.0995533 2 19 C2.99 19 3.98 19 5 19 C4.71897086 22.37234971 4.19628348 23.78639739 1.875 26.3125 C-1.7573828 28.44455077 -3.84417945 28.51947757 -8 28 C-12.22882569 26.17391618 -13.95470514 24.06754414 -16 20 C-16.78262537 14.76134547 -17.14416565 8.98057534 -14.1875 4.375 C-9.83443533 -0.3511845 -6.14675572 -0.92578107 0 0 Z " fill="#E3E3E3" transform="translate(892,494)"/>
<path d="M0 0 C0.99 0 1.98 0 3 0 C3.33 1.32 3.66 2.64 4 4 C4.66 3.34 5.32 2.68 6 2 C10.1023556 -0.73490373 12.13418066 -0.5493667 17 0 C18.72387695 1.1809082 18.72387695 1.1809082 20 3 C20.34057617 5.54370117 20.34057617 5.54370117 20.29296875 8.54296875 C20.28330078 9.61611328 20.27363281 10.68925781 20.26367188 11.79492188 C20.23853516 12.91447266 20.21339844 14.03402344 20.1875 15.1875 C20.16719727 16.88422852 20.16719727 16.88422852 20.14648438 18.61523438 C20.11109958 21.41063317 20.06172948 24.20507892 20 27 C19.01 27 18.02 27 17 27 C16.97494385 26.37432129 16.9498877 25.74864258 16.92407227 25.10400391 C16.80824727 22.27745381 16.68546015 19.45124831 16.5625 16.625 C16.52318359 15.64015625 16.48386719 14.6553125 16.44335938 13.640625 C16.40146484 12.69960938 16.35957031 11.75859375 16.31640625 10.7890625 C16.27974854 9.91975098 16.24309082 9.05043945 16.20532227 8.15478516 C16.12598456 5.9516738 16.12598456 5.9516738 15 4 C11.51766117 3.6760615 9.46396 3.75437412 6.34375 5.40625 C2.87907833 9.24048665 3.22077987 12.74322804 3.1875 17.75 C3.16236328 18.63816406 3.13722656 19.52632812 3.11132812 20.44140625 C3.0525474 22.62804918 3.01620461 24.81269532 3 27 C2.01 27 1.02 27 0 27 C0 18.09 0 9.18 0 0 Z " fill="#F6F6F6" transform="translate(847,494)"/>
<path d="M0 0 C1.32 0 2.64 0 4 0 C4 2.97 4 5.94 4 9 C6.31 9 8.62 9 11 9 C11 9.99 11 10.98 11 12 C8.69 12 6.38 12 4 12 C4.33 18.6 4.66 25.2 5 32 C6.98 32.66 8.96 33.32 11 34 C11 34.99 11 35.98 11 37 C7.75 37.3125 7.75 37.3125 4 37 C1.42374377 34.82288206 0.15124926 33.09632302 -0.31542969 29.71362305 C-0.39382107 27.02719097 -0.34869558 24.37315856 -0.25 21.6875 C-0.23195313 20.75615234 -0.21390625 19.82480469 -0.1953125 18.86523438 C-0.14834888 16.57575803 -0.08269475 14.28841816 0 12 C-1.32 12 -2.64 12 -4 12 C-4 11.01 -4 10.02 -4 9 C-2.68 9 -1.36 9 0 9 C0 6.03 0 3.06 0 0 Z " fill="#E7E7E7" transform="translate(692,485)"/>
<path d="M0 0 C3.05594447 0.61799248 4.15234302 2.03985919 6.10546875 4.42578125 C6.55957031 6.99121094 6.55957031 6.99121094 6.49609375 9.84765625 C6.47675781 11.38486328 6.47675781 11.38486328 6.45703125 12.953125 C6.42351562 14.01660156 6.39 15.08007812 6.35546875 16.17578125 C6.33742188 17.25472656 6.319375 18.33367187 6.30078125 19.4453125 C6.2536829 22.10636913 6.18792475 24.76562379 6.10546875 27.42578125 C4.78546875 27.42578125 3.46546875 27.42578125 2.10546875 27.42578125 C2.0804126 26.76457275 2.05535645 26.10336426 2.02954102 25.42211914 C1.91393773 22.4439582 1.79105121 19.46614205 1.66796875 16.48828125 C1.62865234 15.44736328 1.58933594 14.40644531 1.54882812 13.33398438 C1.50693359 12.34462891 1.46503906 11.35527344 1.421875 10.3359375 C1.38521729 9.41949463 1.34855957 8.50305176 1.31079102 7.55883789 C1.33543011 5.44370845 1.33543011 5.44370845 0.10546875 4.42578125 C-4.54075719 4.67490989 -4.54075719 4.67490989 -8.58911133 6.70825195 C-10.1938272 8.81956225 -10.31292855 10.02458507 -10.40625 12.65625 C-10.45942383 13.85991211 -10.45942383 13.85991211 -10.51367188 15.08789062 C-10.53623047 15.92126953 -10.55878906 16.75464844 -10.58203125 17.61328125 C-10.61619141 18.45826172 -10.65035156 19.30324219 -10.68554688 20.17382812 C-10.76794596 22.25734774 -10.8329177 24.34154341 -10.89453125 26.42578125 C-11.55453125 26.42578125 -12.21453125 26.42578125 -12.89453125 26.42578125 C-12.95275655 23.34252767 -12.98820259 20.2594162 -13.01953125 17.17578125 C-13.03628906 16.30308594 -13.05304688 15.43039062 -13.0703125 14.53125 C-13.07675781 13.68691406 -13.08320313 12.84257812 -13.08984375 11.97265625 C-13.10031738 11.19760742 -13.11079102 10.42255859 -13.12158203 9.62402344 C-12.86342172 7.12458744 -12.22026976 5.55090471 -10.89453125 3.42578125 C-8.83203125 2.23828125 -8.83203125 2.23828125 -6.89453125 1.42578125 C-5.04421135 -0.42453865 -2.46981043 0.13437993 0 0 Z " fill="#F6F5F6" transform="translate(452.89453125,493.57421875)"/>
<path d="M0 0 C0.99 0 1.98 0 3 0 C3 2.97 3 5.94 3 9 C5.31 9 7.62 9 10 9 C10 9.99 10 10.98 10 12 C7.69 12 5.38 12 3 12 C3.33 18.6 3.66 25.2 4 32 C6.31 32.66 8.62 33.32 11 34 C11 34.99 11 35.98 11 37 C4.78888889 37.47777778 4.78888889 37.47777778 1.78125 35.65625 C-1.04695306 31.43875421 -0.42132249 27.19858433 -0.25 22.25 C-0.23195313 21.26644531 -0.21390625 20.28289062 -0.1953125 19.26953125 C-0.14824126 16.84536217 -0.08250742 14.42317941 0 12 C-1.65 12 -3.3 12 -5 12 C-5 11.01 -5 10.02 -5 9 C-3.35 9 -1.7 9 0 9 C0 6.03 0 3.06 0 0 Z " fill="#F0F0F0" transform="translate(1066,485)"/>
<path d="M0 0 C4.66890575 1.70594633 7.28954357 3.83006703 10 8 C10 8.99 10 9.98 10 11 C9.01 11.33 8.02 11.66 7 12 C6.38125 11.030625 5.7625 10.06125 5.125 9.0625 C3.34321154 5.97164638 3.34321154 5.97164638 1 5 C-3.75469749 4.34611233 -6.97307179 4.25711577 -10.9375 7.125 C-14.51480463 12.11154585 -15.27789236 16.98243629 -16 23 C-16.99 23 -17.98 23 -19 23 C-19.55482057 16.29283574 -19.55568126 11.2193397 -15.48046875 5.66015625 C-10.92702985 0.55405722 -6.62287335 -1.08615123 0 0 Z " fill="#E2E2E2" transform="translate(624,481)"/>
<path d="M0 0 C1.32 0 2.64 0 4 0 C4 12.87 4 25.74 4 39 C2.68 39 1.36 39 0 39 C0 26.13 0 13.26 0 0 Z " fill="#DEDEDE" transform="translate(832,482)"/>
<path d="M0 0 C0.99 0.33 1.98 0.66 3 1 C3 1.66 3 2.32 3 3 C11.415 2.505 11.415 2.505 20 2 C24 13.5 24 13.5 24 18 C22.68 18 21.36 18 20 18 C19.49487756 16.39743892 18.99608373 14.79288208 18.5 13.1875 C18.2215625 12.29417969 17.943125 11.40085937 17.65625 10.48046875 C17 8 17 8 17 5 C12.05 5.33 7.1 5.66 2 6 C0.68 9.96 -0.64 13.92 -2 18 C-3.32 18 -4.64 18 -6 18 C-4.41039668 11.76559832 -2.72399099 5.83712355 0 0 Z " fill="#EAEAEA" transform="translate(539,503)"/>
<path d="M0 0 C1.32 0 2.64 0 4 0 C4.33 0.99 4.66 1.98 5 3 C5.598125 2.505 6.19625 2.01 6.8125 1.5 C9 0 9 0 12 0 C12 0.99 12 1.98 12 3 C10.03277992 4.38123963 8.03131672 5.71488126 6 7 C4.88176185 9.23647631 4.80603939 10.64891529 4.68359375 13.1328125 C4.64169922 13.93847656 4.59980469 14.74414062 4.55664062 15.57421875 C4.49766602 16.83685547 4.49766602 16.83685547 4.4375 18.125 C4.37272461 19.39923828 4.37272461 19.39923828 4.30664062 20.69921875 C4.20045764 22.79928223 4.09971503 24.89961948 4 27 C2.68 27 1.36 27 0 27 C0 18.09 0 9.18 0 0 Z " fill="#CCCCCC" transform="translate(935,494)"/>
<path d="M0 0 C0.99 0.495 0.99 0.495 2 1 C3.37264719 5.11794156 3.34950905 9.24657326 3.51757812 13.55078125 C3.70771749 17.18854201 3.93076619 18.89614929 6 22 C8.19454681 22.57993699 8.19454681 22.57993699 10.625 22.6875 C11.44226563 22.75324219 12.25953125 22.81898438 13.1015625 22.88671875 C13.72804688 22.92410156 14.35453125 22.96148438 15 23 C15 23.99 15 24.98 15 26 C13.54207116 26.05399736 12.08357288 26.09279177 10.625 26.125 C9.40683594 26.15980469 9.40683594 26.15980469 8.1640625 26.1953125 C6 26 6 26 4 24 C3.67 27.63 3.34 31.26 3 35 C2.01 35 1.02 35 0 35 C0 23.45 0 11.9 0 0 Z " fill="#F0F0F0" transform="translate(955,495)"/>
<path d="M0 0 C0.375 3.1875 0.375 3.1875 0 7 C-2.97998496 10.33474507 -4.78579435 11.83654924 -9.25 12.4375 C-12 12 -12 12 -14 10 C-14.55299539 4.80184332 -14.55299539 4.80184332 -12.75 2.1875 C-8.76600433 -0.51592564 -4.69812302 -0.09034852 0 0 Z " fill="#0E0E0E" transform="translate(1051,507)"/>
<path d="M0 0 C0.66 0 1.32 0 2 0 C2.84080019 2.41429769 3.67281402 4.83103993 4.5 7.25 C4.73847656 7.93191406 4.97695313 8.61382812 5.22265625 9.31640625 C6.39421287 12.76413003 7 15.31702904 7 19 C3.04 19 -0.92 19 -5 19 C-3.35 12.73 -1.7 6.46 0 0 Z " fill="#111111" transform="translate(547,486)"/>
<path d="M0 0 C2.87029869 1.79393668 4.49131638 2.98263276 6 6 C6 8.31 6 10.62 6 13 C0.06 13 -5.88 13 -12 13 C-12 12.67 -12 12.34 -12 12 C-6.72 12 -1.44 12 4 12 C1.5797509 6.36893239 1.5797509 6.36893239 -1 4 C-4.41538144 3.41630557 -4.41538144 3.41630557 -8 4 C-11.85146028 7.4350862 -12.8568494 11.14160994 -14 16 C-14.33 16 -14.66 16 -15 16 C-15.62739631 7.0247473 -15.62739631 7.0247473 -13.125 2.9375 C-9.14212168 -0.69394788 -5.20525336 -0.67425562 0 0 Z " fill="#EEEEEE" transform="translate(1098,494)"/>
<path d="M0 0 C0.99 0 1.98 0 3 0 C3.33 1.32 3.66 2.64 4 4 C4.5775 3.34 5.155 2.68 5.75 2 C8 0 8 0 12 0 C12 0.99 12 1.98 12 3 C10.34928604 4.02611949 8.68029994 5.02308143 7 6 C3.17464563 9.65063866 3.45681264 13.77739883 3.3125 18.75 C3.27833984 19.54277344 3.24417969 20.33554687 3.20898438 21.15234375 C3.12680896 23.10107504 3.06171955 25.05051362 3 27 C2.01 27 1.02 27 0 27 C0 18.09 0 9.18 0 0 Z " fill="#F6F6F6" transform="translate(1016,494)"/>
<path d="M0 0 C3.04317386 -0.13558695 6.08025562 -0.23437239 9.125 -0.3125 C10.40890625 -0.3753418 10.40890625 -0.3753418 11.71875 -0.43945312 C16.10830724 -0.52386769 19.06544754 -0.44503851 22.5546875 2.39453125 C25.16018484 5.17067618 25.8712195 6.05560967 26.375 9.75 C25.84967842 14.30278706 24.22094518 15.77905482 21 19 C20.01 19.33 19.02 19.66 18 20 C18 18.68 18 17.36 18 16 C18.495 15.54625 18.99 15.0925 19.5 14.625 C21.283224 12.9910948 21.283224 12.9910948 21.5 10 C21.3255937 6.87041154 21.3255937 6.87041154 18.8828125 5.34375 C14.6147148 3.3542844 10.60722385 3.53383681 5.9609375 3.40625 C2.66486088 2.95401785 2.12074712 2.37826079 0 0 Z " fill="#D9D9D9" transform="translate(572,482)"/>
<path d="M0 0 C4.03645882 -0.31658501 6.32333195 -0.4210379 9.8125 1.75 C13.22257372 5.2575044 14.28969352 7.99441352 14.3125 12.875 C14.20284234 18.1933967 12.86665591 21.76001291 9.4375 25.875 C8 27 8 27 6 27 C7.875 21.25 7.875 21.25 9 19 C9.50290476 13.88026467 9.7910106 9.46483445 7.3125 4.875 C4.7943912 2.83329016 3.20280069 2.26690006 0 2 C0 1.34 0 0.68 0 0 Z " fill="#DBDBDB" transform="translate(793,494)"/>
<path d="M0 0 C0 0.99 0 1.98 0 3 C-1.093125 3.061875 -2.18625 3.12375 -3.3125 3.1875 C-7.01534424 3.64785656 -7.01534424 3.64785656 -8.9375 6 C-10.88737994 11.50554337 -10.7639693 16.18557292 -8.5 21.5625 C-8.005 22.366875 -7.51 23.17125 -7 24 C-7.99 24.66 -8.98 25.32 -10 26 C-14.74167557 20.96196971 -14.47292725 16.05424995 -14.53125 9.33984375 C-13.91078561 5.43913015 -12.74178714 3.78782461 -10 1 C-6.78548731 -0.60725635 -3.56387464 -0.05748185 0 0 Z " fill="#ECECEC" transform="translate(754,494)"/>
<path d="M0 0 C0.33 0 0.66 0 1 0 C1.65055683 6.24534561 0.90383622 10.14294616 -2.61328125 15.37109375 C-4.96824355 18.13734524 -6.73077589 18.9644421 -10.3125 19.4375 C-15.12917761 18.86602978 -16.58501373 17.33169393 -20 14 C-19.01 12.68 -18.02 11.36 -17 10 C-16.34 11.32 -15.68 12.64 -15 14 C-10.9706137 14.33241834 -10.9706137 14.33241834 -7 14 C-3.73392167 10.52320694 -3.45421518 6.63299486 -3 2 C-2.34 2.33 -1.68 2.66 -1 3 C-0.67 2.01 -0.34 1.02 0 0 Z " fill="#DDDDDD" transform="translate(1006,503)"/>
<path d="M0 0 C1.32 0 2.64 0 4 0 C4 8.91 4 17.82 4 27 C2.68 27 1.36 27 0 27 C0 18.09 0 9.18 0 0 Z " fill="#D4D4D4" transform="translate(772,494)"/>
<path d="M0 0 C0.99 0 1.98 0 3 0 C3.02474682 4.91129185 3.04288223 9.82254727 3.05493164 14.73388672 C3.05995569 16.40414055 3.06677605 18.07438999 3.07543945 19.74462891 C3.08758946 22.14747196 3.09324763 24.55025679 3.09765625 26.953125 C3.10281754 27.69806213 3.10797882 28.44299927 3.11329651 29.21051025 C3.11366364 32.61502191 3.07330918 35.74664759 2 39 C1.34 39 0.68 39 0 39 C0 38.01 0 37.02 0 36 C-0.99 35.67 -1.98 35.34 -3 35 C-2.34 34.34 -1.68 33.68 -1 33 C-0.57354771 30.1404923 -0.57354771 30.1404923 -0.4375 26.9375 C-0.09722222 21.09722222 -0.09722222 21.09722222 1 20 C1.04080783 18.00041636 1.04254356 15.99954746 1 14 C0.67 14 0.34 14 0 14 C0 9.38 0 4.76 0 0 Z " fill="#E9E9E9" transform="translate(1131,481)"/>
<path d="M0 0 C2.4375 1.75 2.4375 1.75 4 4 C4 5.32 4 6.64 4 8 C-0.95 8 -5.9 8 -11 8 C-10 3 -10 3 -8.875 1.1875 C-5.84814901 -0.72950563 -3.4846244 -0.42793633 0 0 Z " fill="#090909" transform="translate(1097,497)"/>
<path d="M0 0 C4.29857555 0.16857159 6.52119245 0.6230664 9.9375 3.3125 C13.30214215 7.92495646 12.81621682 13.58985488 12 19 C10.93222248 21.73589348 9.7436859 23.60243189 8 26 C7.01 25.67 6.02 25.34 5 25 C5.7425 23.5459375 5.7425 23.5459375 6.5 22.0625 C8.59826026 17.16987417 9.05928831 11.88564748 7.20703125 6.83984375 C5.78164446 4.66716679 4.78463556 4.14245761 2.375 3.25 C1.26125 2.8375 0.1475 2.425 -1 2 C-0.67 1.34 -0.34 0.68 0 0 Z " fill="#EFEFEF" transform="translate(914,494)"/>
<path d="M0 0 C0 7.59 0 15.18 0 23 C-1.32 23 -2.64 23 -4 23 C-4 15.74 -4 8.48 -4 1 C-2 0 -2 0 0 0 Z " fill="#D5D5D5" transform="translate(459,498)"/>
<path d="M0 0 C0.66 0 1.32 0 2 0 C2 5.28 2 10.56 2 16 C2.66 16 3.32 16 4 16 C3.75830078 16.80244141 3.75830078 16.80244141 3.51171875 17.62109375 C2.8971613 20.4780822 2.83060199 23.14083825 2.8125 26.0625 C2.79832031 27.10535156 2.78414063 28.14820313 2.76953125 29.22265625 C2.79204696 32.2123948 2.79204696 32.2123948 5 35 C3.68 35 2.36 35 1 35 C0.67 36.32 0.34 37.64 0 39 C0 26.13 0 13.26 0 0 Z " fill="#FAFAFA" transform="translate(470,482)"/>
<path d="M0 0 C3.8026029 2.0050088 5.61790841 3.42686262 8 7 C8 7.99 8 8.98 8 10 C5.13707027 9.59101004 4.18671386 9.22820583 2.3125 6.9375 C-1.20571108 3.98980964 -4.5943551 4.70791305 -9 5 C-9.99 5 -10.98 5 -12 5 C-12 4.01 -12 3.02 -12 2 C-7.96127401 -0.69248399 -4.74486631 -0.67205444 0 0 Z " fill="#E2E2E2" transform="translate(673,481)"/>
<path d="M0 0 C0.99 0 1.98 0 3 0 C3 8.91 3 17.82 3 27 C2.01 27 1.02 27 0 27 C0 18.09 0 9.18 0 0 Z " fill="#F2F2F2" transform="translate(500,494)"/>
<path d="M0 0 C3.0625 2 3.0625 2 5 4 C4.67 5.32 4.34 6.64 4 8 C3.34 8 2.68 8 2 8 C1.608125 7.34 1.21625 6.68 0.8125 6 C-0.94839144 3.62019089 -0.94839144 3.62019089 -4.5 3.5625 C-7.89394585 3.70146786 -7.89394585 3.70146786 -9.8125 5.3125 C-10.89991036 6.85776736 -11.95187897 8.42781846 -13 10 C-13.66 8.68 -14.32 7.36 -15 6 C-10.44986985 0.0848308 -7.38663856 -0.98063995 0 0 Z " fill="#E7E7E7" transform="translate(892,494)"/>
<path d="M0 0 C1.32 0 2.64 0 4 0 C4.33 4.95 4.66 9.9 5 15 C6.32 14.34 7.64 13.68 9 13 C10.32 13.99 11.64 14.98 13 16 C11.71073008 16.36279456 10.41846728 16.71496698 9.125 17.0625 C8.04605469 17.35833984 8.04605469 17.35833984 6.9453125 17.66015625 C5 18 5 18 3 17 C3 11.72 3 6.44 3 1 C2.34 1 1.68 1 1 1 C1 13.87 1 26.74 1 40 C0.67 40 0.34 40 0 40 C0 26.8 0 13.6 0 0 Z " fill="#DADADA" transform="translate(469,481)"/>
<path d="M0 0 C0.33 0 0.66 0 1 0 C1 6.27 1 12.54 1 19 C1.66 19 2.32 19 3 19 C3 12.73 3 6.46 3 0 C3.33 0 3.66 0 4 0 C4.33 6.6 4.66 13.2 5 20 C6.98 20.66 8.96 21.32 11 22 C11 22.99 11 23.98 11 25 C7.75 25.3125 7.75 25.3125 4 25 C1.42374377 22.82288206 0.15124926 21.09632302 -0.31542969 17.71362305 C-0.39382107 15.02719097 -0.34869558 12.37315856 -0.25 9.6875 C-0.23195313 8.75615234 -0.21390625 7.82480469 -0.1953125 6.86523438 C-0.14834888 4.57575803 -0.08269475 2.28841816 0 0 Z " fill="#C5C5C5" transform="translate(692,497)"/>
<path d="M0 0 C0.99 0 1.98 0 3 0 C3.33 0.99 3.66 1.98 4 3 C4.33 2.505 4.66 2.01 5 1.5 C7.59743109 -0.44807332 9.80622068 -0.47883401 12.99609375 -0.35546875 C16.18579918 0.21034644 17.84822664 1.65261088 20 4 C20.8125 6.25 20.8125 6.25 21 8 C19.68 8 18.36 8 17 8 C16.566875 7.34 16.13375 6.68 15.6875 6 C14.06020621 3.61365625 14.06020621 3.61365625 10.5625 3.5625 C6.95853694 4.00509196 5.56984291 4.53295081 3 7 C2.01 4.69 1.02 2.38 0 0 Z " fill="#EDEDED" transform="translate(955,494)"/>
<path d="M0 0 C2.27804239 2.87928525 4.04034684 5.7830329 5.6875 9.0625 C6.12449219 9.91972656 6.56148437 10.77695312 7.01171875 11.66015625 C8 14 8 14 8 17 C6.68 17 5.36 17 4 17 C2.93919915 14.9263441 1.90190476 12.84064914 0.875 10.75 C0.29492188 9.58984375 -0.28515625 8.4296875 -0.8828125 7.234375 C-2 4 -2 4 -1.1796875 1.578125 C-0.59574219 0.79695313 -0.59574219 0.79695313 0 0 Z " fill="#DDDDDD" transform="translate(590,504)"/>
<path d="M0 0 C0.99 0 1.98 0 3 0 C3 7.26 3 14.52 3 22 C2.01 22 1.02 22 0 22 C0 14.74 0 7.48 0 0 Z " fill="#FCFCFC" transform="translate(864,499)"/>
<path d="M0 0 C-0.61875 0.2475 -1.2375 0.495 -1.875 0.75 C-4.46275992 2.27221172 -5.05592658 3.16777975 -6 6 C-6.16670273 9.04173894 -6.16670273 9.04173894 -6 12 C-6 12.99 -6 13.98 -6 15 C-6.99 15 -7.98 15 -9 15 C-11.5099972 11.23500419 -11.61476744 9.45706394 -11 5 C-7.58512753 1.26746497 -5.16019034 -0.75885152 0 0 Z " fill="#D9D8D9" transform="translate(1044,505)"/>
<path d="M0 0 C7.25867508 -0.61514196 7.25867508 -0.61514196 10.9375 2.4375 C11.618125 3.283125 12.29875 4.12875 13 5 C13.33 5.33 13.66 5.66 14 6 C14.04092937 8.33297433 14.04241723 10.66705225 14 13 C10.50640074 10.67093383 9.74841039 8.73524038 8 5 C6.03177114 3.03177114 2.65191291 3.33751619 0 3 C0 2.01 0 1.02 0 0 Z " fill="#E7E7E7" transform="translate(992,494)"/>
<path d="M0 0 C4.95 0 9.9 0 15 0 C15 1.32 15 2.64 15 4 C10.05 4 5.1 4 0 4 C0 2.68 0 1.36 0 0 Z " fill="#CACACA" transform="translate(513,504)"/>
<path d="M0 0 C0.99 0 1.98 0 3 0 C2.71897086 3.37234971 2.19628348 4.78639739 -0.125 7.3125 C-3.69472872 9.40777555 -5.9235111 9.46148931 -10 9 C-10.66 8.34 -11.32 7.68 -12 7 C-9 5 -9 5 -5.4375 4.0625 C-1.75850594 3.32149023 -1.75850594 3.32149023 0 0 Z " fill="#C3C3C3" transform="translate(894,513)"/>
<path d="M0 0 C0.33 0 0.66 0 1 0 C1 1.65 1 3.3 1 5 C0.2575 4.79375 -0.485 4.5875 -1.25 4.375 C-4.45417043 3.93806767 -5.21259056 4.5640618 -8 6 C-11.125 6.25 -11.125 6.25 -14 6 C-14.66 5.34 -15.32 4.68 -16 4 C-16 3.01 -16 2.02 -16 1 C-11.38 1 -6.76 1 -2 1 C-2 1.99 -2 2.98 -2 4 C-1.34 4 -0.68 4 0 4 C0 2.68 0 1.36 0 0 Z " fill="#D0D0D0" transform="translate(1133,516)"/>
<path d="M0 0 C0.66 0 1.32 0 2 0 C1.86722656 0.56847656 1.73445312 1.13695312 1.59765625 1.72265625 C0.5115242 6.47151097 -0.38312382 11.16780324 -1 16 C-1.99 16 -2.98 16 -4 16 C-4.05410687 14.22950311 -4.09284119 12.45853151 -4.125 10.6875 C-4.14820313 9.70136719 -4.17140625 8.71523438 -4.1953125 7.69921875 C-4 5 -4 5 -2 2 C-1.34 2 -0.68 2 0 2 C0 1.34 0 0.68 0 0 Z " fill="#E7E7E7" transform="translate(609,488)"/>
<path d="M0 0 C1.73546076 2.60319113 2.65175233 4.52267237 3.625 7.4375 C3.88539063 8.19933594 4.14578125 8.96117187 4.4140625 9.74609375 C5 12 5 12 5 16 C3.68 16 2.36 16 1 16 C0.4409289 14.08833753 -0.09666462 12.17038424 -0.625 10.25 C-0.92664063 9.18265625 -1.22828125 8.1153125 -1.5390625 7.015625 C-2.03345719 3.78111062 -1.79570284 2.66125745 0 0 Z " fill="#E0E0E0" transform="translate(558,505)"/>
<path d="M0 0 C0.66 0.33 1.32 0.66 2 1 C2.34375 2.890625 2.34375 2.890625 2.5 5.25 C2.74717234 8.18808629 3.04741252 10.11478821 4.1875 12.875 C4.455625 13.57625 4.72375 14.2775 5 15 C4.01 16.485 4.01 16.485 3 18 C-0.21638667 13.94455594 -1.14002872 11.02985004 -1.125 5.875 C-1.12757812 4.98554688 -1.13015625 4.09609375 -1.1328125 3.1796875 C-1 1 -1 1 0 0 Z " fill="#F0F0F0" transform="translate(1113,502)"/>
<path d="M0 0 C0.66 0 1.32 0 2 0 C3.45147903 2.90295805 3.37239025 4.77261779 3 8 C0.94696376 11.43229611 -1.12865724 13.70955241 -5 15 C-5 13.68 -5 12.36 -5 11 C-4.525625 10.566875 -4.05125 10.13375 -3.5625 9.6875 C-1.19432396 7.12986987 -1.37511638 4.37604742 -1 1 C-0.67 0.67 -0.34 0.34 0 0 Z " fill="#E8E8E8" transform="translate(595,487)"/>
<path d="M0 0 C0.38800781 0.63421875 0.77601563 1.2684375 1.17578125 1.921875 C3.44725997 4.50951242 4.83151881 4.72698995 8.1875 5.25 C9.08855469 5.39953125 9.98960937 5.5490625 10.91796875 5.703125 C11.60503906 5.80109375 12.29210937 5.8990625 13 6 C12.01 7.485 12.01 7.485 11 9 C7.63023788 9.51842494 5.17614616 9.73797406 2.20703125 7.875 C0.74436672 6.65205959 -0.63531882 5.33139628 -2 4 C-1.34 2.68 -0.68 1.36 0 0 Z " fill="#D6D6D6" transform="translate(988,513)"/>
<path d="M0 0 C0.66 0.33 1.32 0.66 2 1 C2.5625 2.92578125 2.5625 2.92578125 3 5.3125 C3.59749231 8.54002544 4.41655361 11.11680802 6 14 C5.01 14.66 4.02 15.32 3 16 C-0.67146132 11.52540651 -1.42189184 8.62470682 -1.23828125 2.85546875 C-1 1 -1 1 0 0 Z " fill="#E5E5E5" transform="translate(741,504)"/>
<path d="M0 0 C0.33 0 0.66 0 1 0 C1.33 4.29 1.66 8.58 2 13 C2.33 13 2.66 13 3 13 C3.04241723 15.33294775 3.04092937 17.66702567 3 20 C2.67 20.33 2.34 20.66 2 21 C1.76572222 23.01594582 1.58663876 25.038474 1.4375 27.0625 C1.35371094 28.16722656 1.26992187 29.27195312 1.18359375 30.41015625 C1.12300781 31.26480469 1.06242187 32.11945312 1 33 C0.67 33 0.34 33 0 33 C-0.89556188 21.86747694 -0.97350957 11.12796329 0 0 Z " fill="#C8C8C8" transform="translate(1130,481)"/>
<path d="M0 0 C2 1.5 2 1.5 3 3 C2.67 3.99 2.34 4.98 2 6 C1.01 6 0.02 6 -1 6 C-1.33 5.34 -1.66 4.68 -2 4 C-5.94727588 3.82057837 -8.5980513 3.90649311 -12 6 C-12 3 -12 3 -10.5 1.3125 C-6.7576781 -0.652219 -4.21403209 -0.40133639 0 0 Z " fill="#EFEFEF" transform="translate(864,494)"/>
<path d="M0 0 C4.13376618 -0.40527119 6.41811408 -0.33250624 10.0625 1.75 C13.10566607 6.85466567 11.39086507 11.44539875 10 17 C9.67 17 9.34 17 9 17 C8.93941406 16.31292969 8.87882812 15.62585938 8.81640625 14.91796875 C8.73261719 14.01691406 8.64882813 13.11585938 8.5625 12.1875 C8.48128906 11.29417969 8.40007812 10.40085937 8.31640625 9.48046875 C8.06510233 6.87256441 8.06510233 6.87256441 7 4 C5.12612784 3.19787372 5.12612784 3.19787372 2.9375 2.8125 C2.20402344 2.65394531 1.47054688 2.49539063 0.71484375 2.33203125 C0.14894531 2.22246094 -0.41695313 2.11289062 -1 2 C-0.67 1.34 -0.34 0.68 0 0 Z " fill="#CCCCCC" transform="translate(478,494)"/>
<path d="M0 0 C0 0.99 0 1.98 0 3 C-1.95890881 4.39300182 -3.9639118 5.72245446 -6 7 C-7.79394446 8.62351109 -7.79394446 8.62351109 -9 10 C-11 8 -11 8 -11.125 4.375 C-11.08375 3.26125 -11.0425 2.1475 -11 1 C-10.34 1 -9.68 1 -9 1 C-9 2.65 -9 4.3 -9 6 C-8.34 6 -7.68 6 -7 6 C-6.8453125 5.071875 -6.8453125 5.071875 -6.6875 4.125 C-5.52284543 0.52515862 -3.5849033 0 0 0 Z " fill="#F8F8F8" transform="translate(947,494)"/>
<path d="M0 0 C0.99 0 1.98 0 3 0 C3.268125 0.969375 3.53625 1.93875 3.8125 2.9375 C4.204375 3.948125 4.59625 4.95875 5 6 C5.99 6.33 6.98 6.66 8 7 C7.67 7.99 7.34 8.98 7 10 C3.15719715 8.75368556 0.92680104 7.63951308 -1 4 C-0.6875 1.75 -0.6875 1.75 0 0 Z " fill="#E0E0E0" transform="translate(363,511)"/>
<path d="M0 0 C0.66 0 1.32 0 2 0 C2.33 6.93 2.66 13.86 3 21 C2.01 21 1.02 21 0 21 C0 14.07 0 7.14 0 0 Z " fill="#FDFDFD" transform="translate(711,495)"/>
<path d="M0 0 C3.3 0.66 6.6 1.32 10 2 C9.67 3.32 9.34 4.64 9 6 C2.375 6.25 2.375 6.25 -1 4 C-0.67 2.68 -0.34 1.36 0 0 Z " fill="#CECECE" transform="translate(790,516)"/>
<path d="M0 0 C0.33 0 0.66 0 1 0 C1 6.27 1 12.54 1 19 C0.34 19 -0.32 19 -1 19 C-1 18.01 -1 17.02 -1 16 C-1.99 15.67 -2.98 15.34 -4 15 C-3.34 14.34 -2.68 13.68 -2 13 C-1.57354771 10.1404923 -1.57354771 10.1404923 -1.4375 6.9375 C-1.09722222 1.09722222 -1.09722222 1.09722222 0 0 Z " fill="#FBFBFB" transform="translate(1132,501)"/>
<path d="M0 0 C0.66 0 1.32 0 2 0 C3.09506492 3.28519475 3.09960608 5.73663415 3.0625 9.1875 C3.05347656 10.27417969 3.04445313 11.36085938 3.03515625 12.48046875 C3.02355469 13.31191406 3.01195312 14.14335938 3 15 C2.01 15 1.02 15 0 15 C0 10.05 0 5.1 0 0 Z " fill="#FBFBFB" transform="translate(955,515)"/>
<path d="M0 0 C0.99 0.495 0.99 0.495 2 1 C2.36526253 3.32854865 2.69350684 5.66298962 3 8 C3.62256028 10.01416562 4.27566653 12.02015519 5 14 C4.34 14.66 3.68 15.32 3 16 C-0.13107836 12.61416198 -0.33550778 10.28890538 -0.1875 5.75 C-0.14689453 4.13351562 -0.14689453 4.13351562 -0.10546875 2.484375 C-0.07066406 1.66453125 -0.03585937 0.8446875 0 0 Z " fill="#F7F7F7" transform="translate(785,503)"/>
<path d="M0 0 C1.36511719 0.43119141 1.36511719 0.43119141 2.7578125 0.87109375 C3.45648438 1.09925781 4.15515625 1.32742188 4.875 1.5625 C4.875 2.5525 4.875 3.5425 4.875 4.5625 C0.5572542 4.05452991 -3.15802114 3.36567221 -7.125 1.5625 C-7.125 0.9025 -7.125 0.2425 -7.125 -0.4375 C-4.30685434 -1.84657283 -2.95222796 -0.94622691 0 0 Z " fill="#EDEDED" transform="translate(376.125,499.4375)"/>
<path d="M0 0 C0.66 0.33 1.32 0.66 2 1 C2.43535798 5.35357983 2.38921814 8.04099736 -0.375 11.4375 C-3 14 -3 14 -5 14 C-3.94124926 10.59687262 -2.99097846 7.98646769 -1 5 C-0.61500109 3.34450469 -0.27206865 1.6777567 0 0 Z " fill="#EDEDED" transform="translate(804,507)"/>
<path d="M0 0 C5.08174565 -0.17523261 9.32069904 -0.28258584 14 2 C14.875 4.125 14.875 4.125 15 6 C13.25 6.75 13.25 6.75 11 7 C9.66666667 5.66666667 8.33333333 4.33333333 7 3 C3.36456099 1.72234735 3.36456099 1.72234735 0 1 C0 0.67 0 0.34 0 0 Z " fill="#DBDBDB" transform="translate(667,502)"/>
<path d="M0 0 C1.32 0.33 2.64 0.66 4 1 C3.40844669 2.31823302 2.80128537 3.62947051 2.1875 4.9375 C1.68283203 6.03384766 1.68283203 6.03384766 1.16796875 7.15234375 C0 9 0 9 -3 10 C-3.36629408 5.72656908 -2.40814077 3.51187196 0 0 Z " fill="#E5E5E5" transform="translate(631,510)"/>
<path d="M0 0 C0.99 0 1.98 0 3 0 C3.33 1.32 3.66 2.64 4 4 C4.5775 3.34 5.155 2.68 5.75 2 C8 0 8 0 12 0 C12 0.99 12 1.98 12 3 C9.73783745 4.54779543 7.44775434 5.77612283 5 7 C4.01 6.67 3.02 6.34 2 6 C2 4.35 2 2.7 2 1 C1.34 0.67 0.68 0.34 0 0 Z " fill="#CFCFCF" transform="translate(1016,494)"/>
<path d="M0 0 C0.99 0 1.98 0 3 0 C3.49230769 7.38461538 3.49230769 7.38461538 1 10.5 C0.34 10.995 -0.32 11.49 -1 12 C-1.99 11.67 -2.98 11.34 -4 11 C-3.34 11 -2.68 11 -2 11 C-1.34 7.37 -0.68 3.74 0 0 Z " fill="#F5F5F5" transform="translate(679,508)"/>
<path d="M0 0 C1.32 0 2.64 0 4 0 C3.60404157 1.48484412 3.18249294 2.9628831 2.75 4.4375 C2.51796875 5.26121094 2.2859375 6.08492188 2.046875 6.93359375 C1.52867187 7.95646484 1.52867187 7.95646484 1 9 C-0.32 9.33 -1.64 9.66 -3 10 C-2.01 6.7 -1.02 3.4 0 0 Z " fill="#D5D5D5" transform="translate(412,494)"/>
<path d="M0 0 C0.70125 0.2475 1.4025 0.495 2.125 0.75 C3.79019519 1.09060811 5.45657466 1.42558396 7.125 1.75 C7.125 2.08 7.125 2.41 7.125 2.75 C4.09765625 2.99414062 4.09765625 2.99414062 1.0703125 3.23828125 C-1.27019216 3.62393036 -1.27019216 3.62393036 -2.875 6.75 C-4.195 6.75 -5.515 6.75 -6.875 6.75 C-3.63204989 -0.48427332 -3.63204989 -0.48427332 0 0 Z " fill="#D6D6D6" transform="translate(1040.875,494.25)"/>
<path d="M0 0 C1.66611905 -0.042721 3.33382885 -0.04063832 5 0 C6 1 6 1 6.0625 3.5625 C6.041875 4.366875 6.02125 5.17125 6 6 C4.02 6 2.04 6 0 6 C0 4.02 0 2.04 0 0 Z " fill="#BDBDBD" transform="translate(771,483)"/>
<path d="M0 0 C3.18633188 0.21974703 4.04170872 1.04518445 6.25 3.4375 C8 6 8 6 8 8 C6.68 8 5.36 8 4 8 C2.515625 6.46875 2.515625 6.46875 1.25 4.5 C0.82203125 3.8503125 0.3940625 3.200625 -0.046875 2.53125 C-0.51867187 1.77328125 -0.51867187 1.77328125 -1 1 C-0.67 0.67 -0.34 0.34 0 0 Z " fill="#EEEEEE" transform="translate(380,483)"/>
<path d="M0 0 C0.33 0 0.66 0 1 0 C1.33 4.95 1.66 9.9 2 15 C3.32 14.34 4.64 13.68 6 13 C7.32 13.99 8.64 14.98 10 16 C8.71073008 16.36279456 7.41846728 16.71496698 6.125 17.0625 C5.04605469 17.35833984 5.04605469 17.35833984 3.9453125 17.66015625 C2 18 2 18 0 17 C0 11.39 0 5.78 0 0 Z " fill="#A7A7A7" transform="translate(472,481)"/>
<path d="M0 0 C1.32 0.33 2.64 0.66 4 1 C3.34 1 2.68 1 2 1 C1.67 3.97 1.34 6.94 1 10 C-0.32 10.33 -1.64 10.66 -3 11 C-2.01 7.37 -1.02 3.74 0 0 Z " fill="#E5E5E5" transform="translate(545,483)"/>
<path d="M0 0 C-0.33 1.32 -0.66 2.64 -1 4 C-5.29 3.67 -9.58 3.34 -14 3 C-14 2.34 -14 1.68 -14 1 C-12.22932584 0.83165067 -10.45845388 0.66538091 -8.6875 0.5 C-7.70136719 0.4071875 -6.71523438 0.314375 -5.69921875 0.21875 C-3 0 -3 0 0 0 Z " fill="#F9F9F9" transform="translate(558,505)"/>
<path d="M0 0 C0.95465783 2.16967689 1.14401212 3.56328793 0.3984375 5.82421875 C-0.35870385 7.5684743 -1.17609198 9.28627131 -2 11 C-2.66 11 -3.32 11 -4 11 C-3.38461538 3.49230769 -3.38461538 3.49230769 -1.4375 1 C-0.963125 0.67 -0.48875 0.34 0 0 Z " fill="#EAEAEA" transform="translate(411,502)"/>
<path d="M0 0 C0.33 1.32 0.66 2.64 1 4 C-1.70879335 5.35439668 -4.00933268 5.06501451 -7 5 C-7 3.68 -7 2.36 -7 1 C-3.535 0.505 -3.535 0.505 0 0 Z " fill="#CBCACB" transform="translate(919,517)"/>
<path d="M0 0 C8.57142857 0.71428571 8.57142857 0.71428571 12 4 C9.37165722 4 6.91813299 3.80210238 4.3125 3.5 C3.50425781 3.4071875 2.69601562 3.314375 1.86328125 3.21875 C1.24839844 3.1465625 0.63351562 3.074375 0 3 C0 2.01 0 1.02 0 0 Z " fill="#F3F3F3" transform="translate(666,499)"/>
<path d="M0 0 C1.65 0 3.3 0 5 0 C5 1.98 5 3.96 5 6 C3.35 6 1.7 6 0 6 C0 4.02 0 2.04 0 0 Z " fill="#D1D1D1" transform="translate(499,483)"/>
<path d="M0 0 C3.65316671 1.24976756 4.78065836 1.67098753 7 5 C6.34 5 5.68 5 5 5 C5 5.66 5 6.32 5 7 C2.53199953 5.84826645 0.95216435 4.95216435 -1 3 C-0.67 2.01 -0.34 1.02 0 0 Z " fill="#DFDFDF" transform="translate(381,501)"/>
<path d="M0 0 C0.66 0.33 1.32 0.66 2 1 C1.01 3.97 0.02 6.94 -1 10 C-1.99 10 -2.98 10 -4 10 C-4.41176754 6.39703406 -4.1535853 5.21597933 -2 2.1875 C-1.34 1.465625 -0.68 0.74375 0 0 Z " fill="#E3E3E3" transform="translate(744,495)"/>
<path d="M0 0 C0.99 0 1.98 0 3 0 C3.33 0.99 3.66 1.98 4 3 C4.99 2.01 5.98 1.02 7 0 C8.98 0.66 10.96 1.32 13 2 C13 2.33 13 2.66 13 3 C11.906875 3.28875 10.81375 3.5775 9.6875 3.875 C5.95986155 4.81893204 5.95986155 4.81893204 3 7 C2.01 4.69 1.02 2.38 0 0 Z " fill="#E1E1E1" transform="translate(955,494)"/>
<path d="M0 0 C2.64 0 5.28 0 8 0 C8 0.99 8 1.98 8 3 C5.69 3.33 3.38 3.66 1 4 C0.67 2.68 0.34 1.36 0 0 Z " fill="#C0C0C0" transform="translate(393,527)"/>
<path d="M0 0 C2.97 0 5.94 0 9 0 C9 0.99 9 1.98 9 3 C5.7 3 2.4 3 -1 3 C-0.67 2.01 -0.34 1.02 0 0 Z " fill="#DEDEDE" transform="translate(746,518)"/>
<path d="M0 0 C0.33 0 0.66 0 1 0 C1.33 4.29 1.66 8.58 2 13 C0.33333333 13 -1.33333333 13 -3 13 C-3 11.02 -3 9.04 -3 7 C-2.34 7 -1.68 7 -1 7 C-0.67 4.69 -0.34 2.38 0 0 Z " fill="#C7C7C7" transform="translate(608,497)"/>
<path d="M0 0 C1.32 0 2.64 0 4 0 C4 1.65 4 3.3 4 5 C3.34 4.34 2.68 3.68 2 3 C0.35 3.66 -1.3 4.32 -3 5 C-3 4.34 -3 3.68 -3 3 C-4.65 3 -6.3 3 -8 3 C-8 2.67 -8 2.34 -8 2 C-6.865625 1.855625 -5.73125 1.71125 -4.5625 1.5625 C-1.19222799 1.38828522 -1.19222799 1.38828522 0 0 Z " fill="#C3C3C3" transform="translate(724,516)"/>
<path d="M0 0 C3.875 0.875 3.875 0.875 5 2 C5.04092937 4.33297433 5.04241723 6.66705225 5 9 C1.13892543 6.42595029 1.05680308 4.38979741 0 0 Z " fill="#F1F1F1" transform="translate(1001,498)"/>
<path d="M0 0 C0.99 0.33 1.98 0.66 3 1 C4.99961564 1.03920815 7.00049364 1.04443347 9 1 C9 1.99 9 2.98 9 4 C2.47692308 4.36923077 2.47692308 4.36923077 0.0625 2.5 C-0.4634375 1.7575 -0.4634375 1.7575 -1 1 C-0.67 0.67 -0.34 0.34 0 0 Z " fill="#CFCFCF" transform="translate(1068,518)"/>
<path d="M0 0 C0.99 0 1.98 0 3 0 C2.71890887 1.64767247 2.42481474 3.29313145 2.125 4.9375 C1.96257812 5.85402344 1.80015625 6.77054687 1.6328125 7.71484375 C1.42398437 8.46894531 1.21515625 9.22304688 1 10 C0.01 10.495 0.01 10.495 -1 11 C-1.02688151 9.35425434 -1.04634123 7.70838587 -1.0625 6.0625 C-1.07410156 5.14597656 -1.08570313 4.22945313 -1.09765625 3.28515625 C-1 1 -1 1 0 0 Z " fill="#F6F6F6" transform="translate(1084,499)"/>
<path d="M0 0 C2 2 2 2 2.1953125 3.9453125 C2.13020833 5.96354167 2.06510417 7.98177083 2 10 C1.01 10 0.02 10 -1 10 C-1.125 3.375 -1.125 3.375 0 0 Z " fill="#FBFBFB" transform="translate(606,494)"/>
<path d="M0 0 C0 0.66 0 1.32 0 2 C1.32 2.33 2.64 2.66 4 3 C3.05125 3.309375 2.1025 3.61875 1.125 3.9375 C-1.86080408 4.87394742 -1.86080408 4.87394742 -4 6 C-4.99 5.34 -5.98 4.68 -7 4 C-2.25 0 -2.25 0 0 0 Z " fill="#D7D7D7" transform="translate(1091,494)"/>
<path d="M0 0 C1.40253129 0.39353243 2.80109341 0.80296694 4.1875 1.25 C4.1875 1.58 4.1875 1.91 4.1875 2.25 C2.95 2.394375 1.7125 2.53875 0.4375 2.6875 C-1.84797854 2.96611841 -3.95759238 3.28818221 -6.1875 3.875 C-7.8125 4.25 -7.8125 4.25 -9.8125 3.25 C-6.50385329 -0.37883833 -4.65969094 -1.07305186 0 0 Z " fill="#D8D8D8" transform="translate(373.8125,482.75)"/>
<path d="M0 0 C0.66 0.33 1.32 0.66 2 1 C2 3.64 2 6.28 2 9 C1.01 9 0.02 9 -1 9 C-1.09765625 2.84765625 -1.09765625 2.84765625 -1 1 C-0.67 0.67 -0.34 0.34 0 0 Z " fill="#F9F9F9" transform="translate(741,504)"/>
<path d="M0 0 C0.99 0 1.98 0 3 0 C2.25 4.75 2.25 4.75 0 7 C-0.99 6.67 -1.98 6.34 -3 6 C-2.01 4.02 -1.02 2.04 0 0 Z " fill="#EAEAEA" transform="translate(894,513)"/>
<path d="M0 0 C2 1.8125 2 1.8125 4 4 C4 4.99 4 5.98 4 7 C1.525 6.01 1.525 6.01 -1 5 C-1 1 -1 1 0 0 Z " fill="#E3E2E3" transform="translate(908,514)"/>
<path d="M0 0 C2.31 0 4.62 0 7 0 C7.33 1.32 7.66 2.64 8 4 C3.545 3.01 3.545 3.01 -1 2 C-0.67 1.34 -0.34 0.68 0 0 Z " fill="#F1F1F1" transform="translate(478,494)"/>
<path d="M0 0 C0.33 0.66 0.66 1.32 1 2 C1.66 2 2.32 2 3 2 C1.73220443 4.53559113 0.08937386 6.10056922 -2 8 C-2.66 8 -3.32 8 -4 8 C-4 6.68 -4 5.36 -4 4 C-3.01 3.67 -2.02 3.34 -1 3 C-0.67 2.01 -0.34 1.02 0 0 Z " fill="#D2D2D2" transform="translate(406,511)"/>
<path d="M0 0 C0.66 0 1.32 0 2 0 C2 2.31 2 4.62 2 7 C1.01 7.33 0.02 7.66 -1 8 C-1.04241723 5.66705225 -1.04092937 3.33297433 -1 1 C-0.67 0.67 -0.34 0.34 0 0 Z " fill="#EEEEEE" transform="translate(489,501)"/>
<path d="M0 0 C0.99 0.33 1.98 0.66 3 1 C2.34 2.98 1.68 4.96 1 7 C0.34 7 -0.32 7 -1 7 C-1.33 5.35 -1.66 3.7 -2 2 C-1.34 2 -0.68 2 0 2 C0 1.34 0 0.68 0 0 Z " fill="#F3F3F3" transform="translate(588,499)"/>
<path d="M0 0 C3.63 0.33 7.26 0.66 11 1 C11 1.33 11 1.66 11 2 C9.35 2 7.7 2 6 2 C5.67 2.66 5.34 3.32 5 4 C4.34 3.67 3.68 3.34 3 3 C3 2.34 3 1.68 3 1 C2.34 1 1.68 1 1 1 C0.67 1.99 0.34 2.98 0 4 C0 2.68 0 1.36 0 0 Z " fill="#C7C7C7" transform="translate(471,517)"/>
<path d="M0 0 C1.32 0.33 2.64 0.66 4 1 C4.33 2.32 4.66 3.64 5 5 C3.68 5.33 2.36 5.66 1 6 C0.67 4.02 0.34 2.04 0 0 Z " fill="#D9D9D9" transform="translate(394,494)"/>
<path d="M0 0 C2.3828125 0.0234375 2.3828125 0.0234375 5.125 0.375 C6.03507813 0.48585938 6.94515625 0.59671875 7.8828125 0.7109375 C8.93082031 0.85402344 8.93082031 0.85402344 10 1 C10 1.33 10 1.66 10 2 C8.37828761 2.38897161 6.75245075 2.76078298 5.125 3.125 C4.22007812 3.33382812 3.31515625 3.54265625 2.3828125 3.7578125 C1.59648438 3.83773437 0.81015625 3.91765625 0 4 C-0.66 3.34 -1.32 2.68 -2 2 C-1.34 1.34 -0.68 0.68 0 0 Z " fill="#C4C4C4" transform="translate(614,517)"/>
<path d="M0 0 C0.66 0 1.32 0 2 0 C2.625 2.375 2.625 2.375 3 5 C2.34 5.66 1.68 6.32 1 7 C0.34 6.34 -0.32 5.68 -1 5 C-0.625 2.375 -0.625 2.375 0 0 Z " fill="#E4E4E4" transform="translate(787,512)"/>
<path d="M0 0 C0.763125 0.20625 1.52625 0.4125 2.3125 0.625 C2.6425 1.945 2.9725 3.265 3.3125 4.625 C0.3425 3.635 -2.6275 2.645 -5.6875 1.625 C-2.6875 -0.375 -2.6875 -0.375 0 0 Z " fill="#EFEFEF" transform="translate(1125.6875,494.375)"/>
<path d="M0 0 C2.31 0 4.62 0 7 0 C7 1.32 7 2.64 7 4 C4.69 3.34 2.38 2.68 0 2 C0 1.34 0 0.68 0 0 Z " fill="#F3F3F3" transform="translate(793,494)"/>
<path d="M0 0 C1.32 0.33 2.64 0.66 4 1 C4 1.66 4 2.32 4 3 C5.32 3 6.64 3 8 3 C7.67 3.99 7.34 4.98 7 6 C7 5.34 7 4.68 7 4 C5.35 4 3.7 4 2 4 C1.34 2.68 0.68 1.36 0 0 Z " fill="#2B2B2B" transform="translate(696,515)"/>
<path d="M0 0 C0.99 0 1.98 0 3 0 C3.33 1.32 3.66 2.64 4 4 C2.68 4.33 1.36 4.66 0 5 C-0.5625 3.0625 -0.5625 3.0625 -1 1 C-0.67 0.67 -0.34 0.34 0 0 Z " fill="#DADADA" transform="translate(363,511)"/>
<path d="M0 0 C0 0.99 0 1.98 0 3 C-2.31 3.66 -4.62 4.32 -7 5 C-5.22678182 1.07358831 -4.52021524 0 0 0 Z " fill="#E3E3E3" transform="translate(947,494)"/>
<path d="M0 0 C2.31 0 4.62 0 7 0 C6.67 1.32 6.34 2.64 6 4 C4.02 3.34 2.04 2.68 0 2 C0 1.34 0 0.68 0 0 Z " fill="#F0F0F0" transform="translate(1091,494)"/>
<path d="M0 0 C-0.33 0.99 -0.66 1.98 -1 3 C-1.99 3.33 -2.98 3.66 -4 4 C-4.33 5.65 -4.66 7.3 -5 9 C-5.33 9 -5.66 9 -6 9 C-6.36521739 3.52173913 -6.36521739 3.52173913 -4.6875 1.125 C-3 0 -3 0 0 0 Z " fill="#272727" transform="translate(373,485)"/>
<path d="M0 0 C1.32 0 2.64 0 4 0 C4 0.99 4 1.98 4 3 C2.125 3.625 2.125 3.625 0 4 C-0.66 3.34 -1.32 2.68 -2 2 C-1.34 1.34 -0.68 0.68 0 0 Z " fill="#E8E8E8" transform="translate(1024,494)"/>
<path d="M0 0 C0.66 0.33 1.32 0.66 2 1 C1 4 1 4 -0.875 5.25 C-3 6 -3 6 -6 5 C-4.73775586 2.47551173 -3.49988984 2.17182336 -1 1 C-0.67 0.67 -0.34 0.34 0 0 Z " fill="#E0E0E0" transform="translate(447,494)"/>
<path d="M0 0 C2.0625 0.4375 2.0625 0.4375 4 1 C4 1.99 4 2.98 4 4 C3.01 4 2.02 4 1 4 C0.34 3.01 -0.32 2.02 -1 1 C-0.67 0.67 -0.34 0.34 0 0 Z " fill="#F1F1F1" transform="translate(591,484)"/>
</svg>
