<?xml version="1.0" encoding="UTF-8"?>
<svg version="1.1" xmlns="http://www.w3.org/2000/svg" width="1500" height="750">
<path d="M0 0 C495 0 990 0 1500 0 C1500 247.5 1500 495 1500 750 C1005 750 510 750 0 750 C0 502.5 0 255 0 0 Z " fill="#000000" transform="translate(0,0)"/>
<path d="M0 0 C13.2 0 26.4 0 40 0 C50.59833126 30.87339976 61.13346457 61.75961749 71.04858398 92.86010742 C73.19423284 99.5686803 75.4429605 106.21370038 77.87426758 112.82446289 C78.93623192 115.82011898 79.88670618 118.8235726 80.80078125 121.8671875 C82.96030883 128.94077785 85.28008289 135.95582803 87.63082886 142.96737671 C88.39886643 145.25870191 89.16464402 147.55077254 89.92993164 149.84301758 C92.54063885 157.66031322 95.15888304 165.47506643 97.78149414 173.28837585 C99.03121808 177.01349739 100.27849708 180.73943527 101.52545166 184.46548462 C102.12382876 186.25134574 102.72335864 188.03682111 103.32415771 189.8218689 C106.162487 198.25521055 108.95318924 206.68283261 111.40234375 215.23828125 C114.57583404 226.28973333 118.38739581 237.12958926 122.125 248 C123.20250797 251.14543301 124.27900116 254.29121209 125.35543823 257.43701172 C126.01905651 259.37513585 126.68348861 261.31298161 127.34890747 263.25048828 C127.94976777 265.00073303 128.54858914 266.75167947 129.14508057 268.50341797 C129.71831162 270.17739833 130.30058314 271.8483083 130.89154053 273.51611328 C131.16693665 274.30614746 131.44233276 275.09618164 131.72607422 275.91015625 C131.97187225 276.60375244 132.21767029 277.29734863 132.47091675 278.01196289 C133 280 133 280 133 284 C120.79 284 108.58 284 96 284 C93.62665829 277.4733103 91.36349441 271.14899876 89.5 264.5 C88.14364546 259.7694015 86.74151446 255.10658664 85 250.5 C83.03291304 245.27813462 81.47822603 239.97154413 79.92578125 234.6159668 C76.625524 223.23234317 73.10884809 211.98033649 68.91796875 200.890625 C68 198 68 198 68 194 C36.32 194.33 4.64 194.66 -28 195 C-29.32 199.62 -30.64 204.24 -32 209 C-32.96936826 211.43905563 -33.93889804 213.87834344 -34.95141602 216.29980469 C-36.20133362 219.51845166 -37.20685928 222.77553999 -38.21484375 226.078125 C-40.14151294 232.32616411 -42.15156153 238.54185757 -44.2265625 244.7421875 C-44.5037764 245.5706015 -44.7809903 246.3990155 -45.06660461 247.25253296 C-45.91824968 249.79374408 -46.77135524 252.33445997 -47.625 254.875 C-48.76483928 258.26762274 -49.90255092 261.66094874 -51.0390625 265.0546875 C-51.4188475 266.181595 -51.4188475 266.181595 -51.80630493 267.33126831 C-53.65798926 272.86124378 -55.32187218 278.40624059 -57 284 C-68.88 284 -80.76 284 -93 284 C-91.67916185 278.05622833 -90.31145941 272.55184119 -88.3125 266.86328125 C-88.05376099 266.11364105 -87.79502197 265.36400085 -87.52844238 264.59164429 C-86.97572335 262.99163673 -86.4208649 261.39236684 -85.86401367 259.79379272 C-84.68756536 256.4152436 -83.52278245 253.03271226 -82.35754395 249.65028381 C-81.76452258 247.92887456 -81.17101587 246.20763243 -80.57702637 244.48655701 C-77.84489936 236.56672677 -75.15749792 228.63265538 -72.5 220.6875 C-72.11585938 219.54772705 -71.73171875 218.4079541 -71.3359375 217.23364258 C-69.39628059 211.42272548 -67.58437873 205.59772769 -65.90234375 199.70703125 C-61.97820364 186.10329897 -57.3246936 172.71447608 -52.82939148 159.29134369 C-51.79726731 156.207529 -50.76772368 153.12285511 -49.73807335 150.03821373 C-43.27380703 130.67567974 -36.76561707 111.3285205 -30.07446289 92.04296875 C-27.69908773 85.17397699 -25.4117095 78.32181915 -23.60058594 71.27685547 C-22.29331392 66.32091287 -20.67957496 61.52242214 -18.59057617 56.8425293 C-16.96874308 53.07026068 -15.80755868 49.20476191 -14.70703125 45.25390625 C-11.97549866 35.72007565 -8.85292842 26.33457754 -5.6875 16.9375 C-3.810625 11.348125 -1.93375 5.75875 0 0 Z " fill="#FCFCFC" transform="translate(684,179)"/>
<path d="
    M -99.625 0
    L  96.375 0
    L  96.375 42
    L -57.625 42
    L -57.625 126
    L  32     126
    L  32     168
    L -57.625 168
    L -57.625 298.08
    L -99.625 298.08
    Z
  " fill="#FCFCFC" transform="translate(495.625,170.5625)"/>
<path fill-rule="evenodd" d="
    M -98.558   0
    L -98.558 298.27
    L  97.442 298.27
    L  97.442   0
    Z
    M -53.558   0
    L  -0.558 104.39
    L  52.442   0
    L  52.442 298.27
    L -53.558 298.27
    Z
  " fill="#FCFCFC" transform="translate(959.55875,167.553955078125)"/>
    <path fill-rule="evenodd" d="
    M 0     0
    L 160   0
    L 160  42
    L 42   42
    L 42  243
    L 160 243
    L 160 285
    L 0   285
    Z
  " fill="#FCFCFC" transform="translate(1098,180)"/>
  
<path d="M0 0 C2.20484783 3.30727174 3.13294524 6.47644646 4.1875 10.25 C4.63177596 11.79717302 5.07714669 13.34403197 5.5234375 14.890625 C5.7615918 15.71884766 5.99974609 16.54707031 6.24511719 17.40039062 C10.87448 33.34264651 15.93470521 49.15371061 21.02246094 64.95410156 C22.27412077 68.85412854 23.51058359 72.75888303 24.74682617 76.66381836 C27.163982 84.29832139 29.62684289 91.9123858 32.1875 99.5 C39 119.74901186 39 119.74901186 39 125 C13.59 125 -11.82 125 -38 125 C-34.6291464 111.51658558 -34.6291464 111.51658558 -32.87890625 106.4140625 C-32.5029834 105.30635498 -32.12706055 104.19864746 -31.73974609 103.05737305 C-31.35125488 101.92468994 -30.96276367 100.79200684 -30.5625 99.625 C-27.86023982 91.63840373 -25.24347496 83.6824336 -23.015625 75.55078125 C-21.65446608 70.79196026 -20.13850421 66.08722627 -18.625 61.375 C-13.59303433 45.67853079 -8.93590176 29.87813926 -4.359375 14.04345703 C-2.99288376 9.32953674 -1.60436215 4.640067 0 0 Z " fill="#050505" transform="translate(703,218)"/>



</svg>
