<svg width="1400" height="750" xmlns="http://www.w3.org/2000/svg" xmlns:svg="http://www.w3.org/2000/svg">
 <g>
  <title>Layer 1</title>
  <path d="m0,0c495,0 990,0 1500,0c0,247.5 0,495 0,750c-495,0 -990,0 -1300,0c0,-247.5 0,-495 0,-750z" fill="#000000" id="svg_1"/>
  <path d="m684,179c13.2,0 26.4,0 40,0c10.59833,30.8734 21.13346,61.75962 31.04858,92.86011c2.14565,6.70857 4.39438,13.35359 6.82569,19.96435c1.06196,2.99566 2.01244,5.99911 2.92651,9.04273c2.15953,7.07359 4.4793,14.08864 6.83005,21.10019c0.76804,2.29132 1.53381,4.58339 2.2991,6.87564c2.61071,7.81729 5.22895,15.63205 7.85156,23.44536c1.24973,3.72512 2.49701,7.45106 3.74396,11.1771c0.59838,1.78587 1.19791,3.57134 1.79871,5.35639c2.83833,8.43334 5.62903,16.86096 8.07818,25.41641c3.17349,11.05145 6.98506,21.89131 10.72266,32.76172c1.07751,3.14543 2.154,6.29121 3.23044,9.43701c0.66362,1.93813 1.32805,3.87597 1.99347,5.81348c0.60086,1.75024 1.19968,3.50119 1.79617,5.25293c0.57323,1.67398 1.1555,3.34489 1.74646,5.01269c0.2754,0.79004 0.55079,1.58007 0.83453,2.39405c0.2458,0.69359 0.4916,1.38719 0.74485,2.1018c0.52908,1.98804 0.52908,1.98804 0.52908,5.98804c-12.21,0 -24.42,0 -37,0c-2.37334,-6.52669 -4.63651,-12.851 -6.5,-19.5c-1.35635,-4.7306 -2.75849,-9.39341 -4.5,-14c-1.96709,-5.22187 -3.52177,-10.52846 -5.07422,-15.88403c-3.30026,-11.38363 -6.81693,-22.63563 -11.00781,-33.72534c-0.91797,-2.89063 -0.91797,-2.89063 -0.91797,-6.89063c-31.68,0.33 -63.36,0.66 -96,1c-1.32,4.62 -2.64,9.24 -4,14c-0.96937,2.43906 -1.9389,4.87834 -2.95142,7.2998c-1.24991,3.21865 -2.25544,6.47574 -3.26342,9.77833c-1.92667,6.24803 -3.93672,12.46373 -6.01172,18.66406c-0.27722,0.82841 -0.55443,1.65683 -0.84004,2.51034c-0.85165,2.54121 -1.70476,5.08193 -2.5584,7.62247c-1.13984,3.39262 -2.27755,6.78595 -3.41406,10.17969c-0.37979,1.12691 -0.37979,1.12691 -0.76724,2.27658c-1.85169,5.52997 -3.51557,11.07497 -5.1937,16.66873c-11.88,0 -23.76,0 -36,0c1.32084,-5.94377 2.68854,-11.44816 4.6875,-17.13672c0.25874,-0.74964 0.51748,-1.49928 0.78406,-2.27164c0.55272,-1.6 1.10758,-3.19927 1.66443,-4.79785c1.17644,-3.37855 2.34123,-6.76108 3.50647,-10.14351c0.59302,-1.72141 1.18652,-3.44265 1.78051,-5.16372c2.73213,-7.91983 5.41953,-15.8539 8.07703,-23.79906c0.38414,-1.13977 0.76828,-2.27955 1.16406,-3.45386c1.93966,-5.81091 3.75156,-11.63591 5.4336,-17.52661c3.92414,-13.60373 8.57765,-26.99255 13.07295,-40.41569c1.03212,-3.08381 2.06167,-6.16848 3.09132,-9.25313c6.46426,-19.36253 12.97245,-38.70969 19.66361,-57.99524c2.37537,-6.86899 4.66275,-13.72115 6.47387,-20.76611c1.30728,-4.95595 2.92102,-9.75444 5.01001,-14.43433c1.62184,-3.77227 2.78302,-7.63777 3.88355,-11.58862c2.73153,-9.53383 5.8541,-18.91933 9.01953,-28.31641c1.87688,-5.58938 3.75375,-11.17875 5.6875,-16.9375z" fill="#FCFCFC" id="svg_2"/>
  <path d="m396,170.5625l196,0l0,42l-154,0l0,84l89.625,0l0,42l-89.625,0l0,130.08l-42,0l0,-298.08z" fill="#FCFCFC" id="svg_3"/>
  <path fill-rule="evenodd" d="m861.00078,167.55396l0,298.26999l196,0l0,-298.27l-196,0l0,0.00001zm45,0l53,104.39l53,-104.39l0,298.27l-106,0l0,-298.27z" fill="#FCFCFC" id="svg_4"/>
  <path fill-rule="evenodd" d="m1098,166l160,0l0,44.06316l-118,0l0,210.87368l118,0l0,44.06316l-160,0l0,-299z" fill="#FCFCFC" id="svg_5"/>
  <path d="m703,218c2.20485,3.30727 3.13295,6.47645 4.1875,10.25c0.44428,1.54717 0.88965,3.09403 1.33594,4.64063c0.23815,0.82822 0.47631,1.65644 0.72168,2.50976c4.62936,15.94226 9.68959,31.75332 14.77734,47.55371c1.25166,3.90003 2.48812,7.80478 3.72437,11.70972c2.41715,7.6345 4.88001,15.24857 7.44067,22.83618c6.8125,20.24901 6.8125,20.24901 6.8125,25.5c-25.41,0 -50.82,0 -77,0c3.37085,-13.48341 3.37085,-13.48341 5.12109,-18.58594c0.37593,-1.10771 0.75185,-2.21541 1.13916,-3.35669c0.3885,-1.13268 0.77699,-2.26536 1.17725,-3.43237c2.70226,-7.9866 5.31903,-15.94257 7.54687,-24.07422c1.36116,-4.75882 2.87713,-9.46355 4.39063,-14.17578c5.03197,-15.69647 9.6891,-31.49686 14.26562,-47.33154c1.3665,-4.71392 2.75502,-9.40339 4.35938,-14.04346z" fill="#050505" id="svg_6"/>
 </g>
</svg>